<svg width="543" height="652" viewBox="0 0 543 652" fill="none" xmlns="http://www.w3.org/2000/svg">
<path fill-rule="evenodd" clip-rule="evenodd" d="M0 498.209V413.979H18.1605V498.209C18.1605 507.117 25.4782 514.338 34.505 514.338H119.86V532.259H34.505C15.4484 532.259 0 517.014 0 498.209Z" fill="white"/>
<path fill-rule="evenodd" clip-rule="evenodd" d="M508.495 525.091H423.14V507.17H508.495C517.522 507.17 524.839 499.949 524.839 491.041V406.811H543V491.041C543 509.846 527.552 525.091 508.495 525.091Z" fill="white"/>
<path fill-rule="evenodd" clip-rule="evenodd" d="M34.5052 0.000807549H119.86V17.922H34.5052C25.4784 17.922 18.1607 25.1432 18.1607 34.0511V118.281H0.000166698V34.0511C0.000166698 15.2456 15.4486 0.000807549 34.5052 0.000807549Z" fill="white"/>
<path fill-rule="evenodd" clip-rule="evenodd" d="M543 34.0502V118.28H524.839V34.0502C524.839 25.1424 517.522 17.9212 508.495 17.9212H423.141V0H508.495C527.552 0 543 15.2448 543 34.0502Z" fill="white"/>
<path d="M49.4901 652C46.0576 652 42.794 651.41 39.6992 650.229C36.6606 648.993 33.9597 647.194 31.5964 644.833C29.2893 642.472 27.4324 639.549 26.0257 636.064C24.6752 632.522 24 628.447 24 623.837C24 619.284 24.6752 615.237 26.0257 611.695C27.3762 608.098 29.2331 605.062 31.5964 602.589C33.9597 600.115 36.745 598.232 39.9524 596.939C43.1598 595.646 46.5922 595 50.2497 595C53.7384 595 56.8895 595.731 59.703 597.192C62.5164 598.598 64.8516 600.2 66.7085 601.999L59.8718 609.672C58.5776 608.491 57.1427 607.536 55.5672 606.805C54.0479 606.074 52.2754 605.709 50.2497 605.709C48.2803 605.709 46.4797 606.13 44.8478 606.973C43.216 607.76 41.7812 608.913 40.5432 610.43C39.3616 611.948 38.4331 613.803 37.7579 615.996C37.0827 618.188 36.745 620.661 36.745 623.416C36.745 629.093 38.0392 633.506 40.6276 636.654C43.216 639.746 46.5922 641.291 50.7561 641.291C52.7256 641.291 54.5262 640.842 56.158 639.942C57.8461 639.043 59.3654 637.862 60.7158 636.401L67.5526 643.905C62.9948 649.302 56.9739 652 49.4901 652Z" fill="white"/>
<path d="M95.373 652C92.1093 652 89.0989 651.382 86.3417 650.145C83.6408 648.908 81.3056 647.081 79.3362 644.664C77.423 642.247 75.9319 639.268 74.8628 635.726C73.7936 632.129 73.2591 627.969 73.2591 623.247C73.2591 618.638 73.7936 614.59 74.8628 611.105C75.9319 607.564 77.423 604.612 79.3362 602.251C81.3056 599.834 83.6408 598.036 86.3417 596.855C89.0989 595.618 92.1093 595 95.373 595C98.6366 595 101.619 595.618 104.32 596.855C107.077 598.036 109.412 599.834 111.325 602.251C113.295 604.612 114.814 607.564 115.883 611.105C116.952 614.59 117.487 618.638 117.487 623.247C117.487 627.969 116.952 632.129 115.883 635.726C114.814 639.268 113.295 642.247 111.325 644.664C109.412 647.081 107.077 648.908 104.32 650.145C101.619 651.382 98.6366 652 95.373 652ZM95.373 641.291C98.2427 641.291 100.522 639.774 102.21 636.738C103.898 633.703 104.742 629.206 104.742 623.247C104.742 617.513 103.898 613.157 102.21 610.177C100.522 607.198 98.2427 605.709 95.373 605.709C92.5032 605.709 90.2243 607.198 88.5362 610.177C86.8482 613.157 86.0041 617.513 86.0041 623.247C86.0041 629.206 86.8482 633.703 88.5362 636.738C90.2243 639.774 92.5032 641.291 95.373 641.291Z" fill="white"/>
<path d="M138.555 650.988L121.927 596.012H135.094L141.678 621.645C142.522 624.68 143.253 627.632 143.872 630.499C144.548 633.309 145.279 636.232 146.067 639.268H146.405C147.249 636.232 148.008 633.309 148.683 630.499C149.359 627.632 150.09 624.68 150.878 621.645L157.377 596.012H170.038L153.495 650.988H138.555Z" fill="white"/>
<path d="M177.517 650.988V640.533H190.346V606.467H177.517V596.012H215.667V606.467H202.838V640.533H215.667V650.988H177.517Z" fill="white"/>
<path d="M227.789 650.988V596.012H242.981C246.977 596.012 250.606 596.546 253.87 597.614C257.133 598.682 259.919 600.34 262.226 602.589C264.533 604.781 266.305 607.592 267.543 611.021C268.837 614.45 269.484 618.525 269.484 623.247C269.484 627.969 268.865 632.072 267.627 635.558C266.39 639.043 264.617 641.938 262.31 644.243C260.059 646.491 257.358 648.177 254.207 649.302C251.056 650.426 247.567 650.988 243.741 650.988H227.789ZM240.281 640.954H242.306C244.444 640.954 246.386 640.645 248.13 640.027C249.931 639.408 251.45 638.425 252.688 637.076C253.982 635.67 254.967 633.843 255.642 631.595C256.374 629.346 256.739 626.564 256.739 623.247C256.739 619.987 256.374 617.26 255.642 615.068C254.967 612.82 253.982 611.049 252.688 609.756C251.45 608.407 249.931 607.451 248.13 606.889C246.386 606.327 244.444 606.046 242.306 606.046H240.281V640.954Z" fill="white"/>
<path d="M278.398 627.547V618.778H317.224V627.547H278.398Z" fill="white"/>
<path d="M331.962 650.988V596.012H368.509V606.467H344.369V619.2H364.964V629.655H344.369V650.988H331.962Z" fill="white"/>
<path d="M379.617 650.988V596.012H399.115C402.041 596.012 404.77 596.293 407.302 596.855C409.89 597.417 412.141 598.373 414.054 599.722C416.024 601.015 417.571 602.757 418.696 604.95C419.822 607.142 420.385 609.868 420.385 613.129C420.385 617.176 419.484 620.521 417.684 623.163C415.883 625.749 413.52 627.688 410.594 628.981L423.001 650.988H409.074L398.524 631.173H392.025V650.988H379.617ZM392.025 621.308H398.102C404.798 621.308 408.146 618.581 408.146 613.129C408.146 610.43 407.302 608.547 405.614 607.479C403.926 606.411 401.422 605.877 398.102 605.877H392.025V621.308Z" fill="white"/>
<path d="M432.084 650.988V596.012H468.546V606.467H444.576V617.513H464.917V627.885H444.576V640.533H469.39V650.988H432.084Z" fill="white"/>
<path d="M482.693 650.988V596.012H519.156V606.467H495.185V617.513H515.527V627.885H495.185V640.533H520V650.988H482.693Z" fill="white"/>
<path d="M175.818 56H163.061V68.7576H175.818V56Z" fill="white"/>
<path d="M201.333 56H188.576V68.7576H201.333V56Z" fill="white"/>
<path d="M239.606 56H226.848V68.7576H239.606V56Z" fill="white"/>
<path d="M252.364 56H239.606V68.7576H252.364V56Z" fill="white"/>
<path d="M277.879 56H265.121V68.7576H277.879V56Z" fill="white"/>
<path d="M290.636 56H277.879V68.7576H290.636V56Z" fill="white"/>
<path d="M316.152 56H303.394V68.7576H316.152V56Z" fill="white"/>
<path d="M341.667 56H328.909V68.7576H341.667V56Z" fill="white"/>
<path d="M379.939 56H367.182V68.7576H379.939V56Z" fill="white"/>
<path d="M175.818 68.7576H163.061V81.5152H175.818V68.7576Z" fill="white"/>
<path d="M188.576 68.7576H175.818V81.5152H188.576L188.576 68.7576Z" fill="white"/>
<path d="M201.333 68.7576H188.576L188.576 81.5152H201.333V68.7576Z" fill="white"/>
<path d="M214.091 68.7576L201.333 68.7576V81.5152H214.091V68.7576Z" fill="white"/>
<path d="M239.606 68.7576H226.848V81.5152H239.606V68.7576Z" fill="white"/>
<path d="M252.364 68.7576H239.606V81.5152H252.364V68.7576Z" fill="white"/>
<path d="M303.394 68.7576H290.636V81.5152H303.394L303.394 68.7576Z" fill="white"/>
<path d="M341.667 68.7576H328.909V81.5152H341.667V68.7576Z" fill="white"/>
<path d="M367.182 68.7576L354.424 68.7576V81.5152H367.182L367.182 68.7576Z" fill="white"/>
<path d="M379.939 68.7576H367.182L367.182 81.5152H379.939V68.7576Z" fill="white"/>
<path d="M175.818 81.5152H163.061V94.2727H175.818V81.5152Z" fill="white"/>
<path d="M214.091 81.5152H201.333L201.333 94.2727H214.091V81.5152Z" fill="white"/>
<path d="M226.848 81.5152H214.091V94.2727H226.848V81.5152Z" fill="white"/>
<path d="M239.606 81.5152H226.848V94.2727H239.606V81.5152Z" fill="white"/>
<path d="M252.364 81.5152H239.606V94.2727H252.364V81.5152Z" fill="white"/>
<path d="M328.909 81.5152L316.152 81.5151V94.2727H328.909L328.909 81.5152Z" fill="white"/>
<path d="M341.667 81.5152H328.909L328.909 94.2727H341.667V81.5152Z" fill="white"/>
<path d="M354.424 81.5152H341.667V94.2727H354.424V81.5152Z" fill="white"/>
<path d="M379.939 81.5152H367.182L367.182 94.2727H379.939V81.5152Z" fill="white"/>
<path d="M214.091 94.2727H201.333V107.03H214.091V94.2727Z" fill="white"/>
<path d="M226.848 94.2727H214.091V107.03H226.848V94.2727Z" fill="white"/>
<path d="M252.364 94.2727H239.606L239.606 107.03H252.364V94.2727Z" fill="white"/>
<path d="M265.121 94.2727L252.364 94.2727V107.03H265.121V94.2727Z" fill="white"/>
<path d="M277.879 94.2727H265.121V107.03H277.879V94.2727Z" fill="white"/>
<path d="M303.394 94.2727H290.636V107.03H303.394V94.2727Z" fill="white"/>
<path d="M316.152 94.2727L303.394 94.2727V107.03H316.152V94.2727Z" fill="white"/>
<path d="M328.909 94.2727H316.152V107.03H328.909V94.2727Z" fill="white"/>
<path d="M341.667 94.2727H328.909V107.03H341.667V94.2727Z" fill="white"/>
<path d="M175.818 107.03H163.061V119.788H175.818V107.03Z" fill="white"/>
<path d="M201.333 107.03L188.576 107.03V119.788H201.333L201.333 107.03Z" fill="white"/>
<path d="M239.606 107.03H226.848V119.788H239.606L239.606 107.03Z" fill="white"/>
<path d="M265.121 107.03H252.364V119.788H265.121V107.03Z" fill="white"/>
<path d="M277.879 107.03H265.121V119.788H277.879V107.03Z" fill="white"/>
<path d="M290.636 107.03H277.879V119.788H290.636V107.03Z" fill="white"/>
<path d="M188.576 119.788H175.818L175.818 132.545H188.576L188.576 119.788Z" fill="white"/>
<path d="M201.333 119.788H188.576L188.576 132.545H201.333V119.788Z" fill="white"/>
<path d="M214.091 119.788L201.333 119.788V132.545H214.091V119.788Z" fill="white"/>
<path d="M252.364 119.788H239.606L239.606 132.545H252.364V119.788Z" fill="white"/>
<path d="M265.121 119.788H252.364V132.545H265.121V119.788Z" fill="white"/>
<path d="M277.879 119.788H265.121V132.545H277.879V119.788Z" fill="white"/>
<path d="M290.636 119.788H277.879V132.545H290.636V119.788Z" fill="white"/>
<path d="M303.394 119.788L290.636 119.788V132.545H303.394V119.788Z" fill="white"/>
<path d="M316.152 119.788H303.394V132.545H316.152V119.788Z" fill="white"/>
<path d="M367.182 119.788H354.424V132.545H367.182V119.788Z" fill="white"/>
<path d="M379.939 119.788H367.182V132.545H379.939V119.788Z" fill="white"/>
<path d="M175.818 132.545L163.061 132.545V145.303H175.818L175.818 132.545Z" fill="white"/>
<path d="M201.333 132.545H188.576L188.576 145.303H201.333V132.545Z" fill="white"/>
<path d="M226.848 132.545L214.091 132.545V145.303H226.848V132.545Z" fill="white"/>
<path d="M252.364 132.545H239.606V145.303H252.364V132.545Z" fill="white"/>
<path d="M277.879 132.545H265.121V145.303H277.879V132.545Z" fill="white"/>
<path d="M303.394 132.545H290.636V145.303H303.394V132.545Z" fill="white"/>
<path d="M328.909 132.545L316.152 132.545V145.303H328.909V132.545Z" fill="white"/>
<path d="M354.424 132.545L341.667 132.545V145.303H354.424V132.545Z" fill="white"/>
<path d="M379.939 132.545H367.182L367.182 145.303H379.939V132.545Z" fill="white"/>
<path d="M188.576 145.303H175.818L175.818 158.061H188.576L188.576 145.303Z" fill="white"/>
<path d="M201.333 145.303H188.576L188.576 158.061H201.333V145.303Z" fill="white"/>
<path d="M226.848 145.303H214.091V158.061H226.848V145.303Z" fill="white"/>
<path d="M265.121 145.303H252.364V158.061H265.121V145.303Z" fill="white"/>
<path d="M277.879 145.303H265.121V158.061H277.879V145.303Z" fill="white"/>
<path d="M290.636 145.303H277.879V158.061H290.636V145.303Z" fill="white"/>
<path d="M341.667 145.303H328.909L328.909 158.061H341.667L341.667 145.303Z" fill="white"/>
<path d="M354.424 145.303H341.667L341.667 158.061H354.424V145.303Z" fill="white"/>
<path d="M367.182 145.303H354.424V158.061H367.182L367.182 145.303Z" fill="white"/>
<path d="M73.7576 158.061H61V170.818H73.7576V158.061Z" fill="white"/>
<path d="M112.03 158.061H99.2727V170.818H112.03V158.061Z" fill="white"/>
<path d="M124.788 158.061H112.03V170.818H124.788V158.061Z" fill="white"/>
<path d="M137.545 158.061H124.788V170.818H137.545V158.061Z" fill="white"/>
<path d="M150.303 158.061H137.545V170.818H150.303V158.061Z" fill="white"/>
<path d="M163.061 158.061H150.303V170.818H163.061V158.061Z" fill="white"/>
<path d="M175.818 158.061H163.061V170.818H175.818L175.818 158.061Z" fill="white"/>
<path d="M239.606 158.061H226.848V170.818H239.606V158.061Z" fill="white"/>
<path d="M252.364 158.061H239.606V170.818H252.364V158.061Z" fill="white"/>
<path d="M303.394 158.061H290.636V170.818H303.394V158.061Z" fill="white"/>
<path d="M328.909 158.061H316.152V170.818H328.909L328.909 158.061Z" fill="white"/>
<path d="M341.667 158.061H328.909L328.909 170.818H341.667V158.061Z" fill="white"/>
<path d="M392.697 158.061H379.939V170.818H392.697V158.061Z" fill="white"/>
<path d="M430.97 158.061H418.212V170.818H430.97V158.061Z" fill="white"/>
<path d="M456.485 158.061H443.727V170.818H456.485V158.061Z" fill="white"/>
<path d="M469.242 158.061H456.485V170.818H469.242V158.061Z" fill="white"/>
<path d="M482 158.061H469.242V170.818H482V158.061Z" fill="white"/>
<path d="M99.2727 170.818L86.5152 170.818V183.576H99.2727L99.2727 170.818Z" fill="white"/>
<path d="M112.03 170.818H99.2727L99.2727 183.576H112.03V170.818Z" fill="white"/>
<path d="M124.788 170.818H112.03V183.576H124.788V170.818Z" fill="white"/>
<path d="M163.061 170.818H150.303L150.303 183.576H163.061V170.818Z" fill="white"/>
<path d="M188.576 170.818L175.818 170.818L175.818 183.576H188.576V170.818Z" fill="white"/>
<path d="M201.333 170.818H188.576V183.576H201.333V170.818Z" fill="white"/>
<path d="M214.091 170.818H201.333V183.576H214.091V170.818Z" fill="white"/>
<path d="M239.606 170.818H226.848V183.576H239.606V170.818Z" fill="white"/>
<path d="M265.121 170.818L252.364 170.818V183.576H265.121V170.818Z" fill="white"/>
<path d="M277.879 170.818H265.121V183.576H277.879V170.818Z" fill="white"/>
<path d="M290.636 170.818L277.879 170.818V183.576H290.636V170.818Z" fill="white"/>
<path d="M303.394 170.818H290.636V183.576H303.394V170.818Z" fill="white"/>
<path d="M316.152 170.818H303.394V183.576H316.152V170.818Z" fill="white"/>
<path d="M328.909 170.818H316.152V183.576H328.909V170.818Z" fill="white"/>
<path d="M405.455 170.818L392.697 170.818V183.576H405.455V170.818Z" fill="white"/>
<path d="M456.485 170.818H443.727V183.576H456.485V170.818Z" fill="white"/>
<path d="M469.242 170.818H456.485V183.576H469.242V170.818Z" fill="white"/>
<path d="M99.2727 183.576H86.5152V196.333H99.2727V183.576Z" fill="white"/>
<path d="M112.03 183.576H99.2727V196.333H112.03V183.576Z" fill="white"/>
<path d="M150.303 183.576L137.545 183.576V196.333H150.303L150.303 183.576Z" fill="white"/>
<path d="M163.061 183.576H150.303L150.303 196.333H163.061V183.576Z" fill="white"/>
<path d="M188.576 183.576H175.818V196.333H188.576V183.576Z" fill="white"/>
<path d="M201.333 183.576H188.576V196.333H201.333V183.576Z" fill="white"/>
<path d="M214.091 183.576H201.333V196.333H214.091V183.576Z" fill="white"/>
<path d="M226.848 183.576H214.091V196.333H226.848V183.576Z" fill="white"/>
<path d="M239.606 183.576H226.848V196.333H239.606V183.576Z" fill="white"/>
<path d="M316.152 183.576H303.394L303.394 196.333H316.152V183.576Z" fill="white"/>
<path d="M328.909 183.576H316.152V196.333H328.909V183.576Z" fill="white"/>
<path d="M341.667 183.576L328.909 183.576V196.333H341.667V183.576Z" fill="white"/>
<path d="M354.424 183.576H341.667V196.333H354.424V183.576Z" fill="white"/>
<path d="M379.939 183.576H367.182V196.333H379.939V183.576Z" fill="white"/>
<path d="M405.455 183.576H392.697V196.333H405.455V183.576Z" fill="white"/>
<path d="M456.485 183.576H443.727V196.333H456.485V183.576Z" fill="white"/>
<path d="M112.03 196.333H99.2727L99.2727 209.091H112.03V196.333Z" fill="white"/>
<path d="M175.818 196.333H163.061V209.091H175.818L175.818 196.333Z" fill="white"/>
<path d="M214.091 196.333H201.333L201.333 209.091H214.091V196.333Z" fill="white"/>
<path d="M239.606 196.333H226.848V209.091H239.606V196.333Z" fill="white"/>
<path d="M277.879 196.333H265.121V209.091H277.879V196.333Z" fill="white"/>
<path d="M303.394 196.333L290.636 196.333V209.091H303.394L303.394 196.333Z" fill="white"/>
<path d="M379.939 196.333H367.182V209.091H379.939V196.333Z" fill="white"/>
<path d="M392.697 196.333H379.939V209.091H392.697V196.333Z" fill="white"/>
<path d="M405.455 196.333H392.697V209.091H405.455V196.333Z" fill="white"/>
<path d="M430.97 196.333H418.212V209.091H430.97V196.333Z" fill="white"/>
<path d="M73.7576 209.091H61V221.849H73.7576V209.091Z" fill="white"/>
<path d="M137.545 209.091H124.788V221.849H137.545V209.091Z" fill="white"/>
<path d="M150.303 209.091H137.545V221.849H150.303V209.091Z" fill="white"/>
<path d="M163.061 209.091L150.303 209.091V221.849H163.061V209.091Z" fill="white"/>
<path d="M226.848 209.091H214.091V221.849H226.848V209.091Z" fill="white"/>
<path d="M239.606 209.091H226.848V221.849H239.606V209.091Z" fill="white"/>
<path d="M265.121 209.091L252.364 209.091V221.849H265.121V209.091Z" fill="white"/>
<path d="M290.636 209.091H277.879L277.879 221.849H290.636V209.091Z" fill="white"/>
<path d="M316.152 209.091L303.394 209.091L303.394 221.849H316.152V209.091Z" fill="white"/>
<path d="M367.182 209.091L354.424 209.091V221.849H367.182L367.182 209.091Z" fill="white"/>
<path d="M379.939 209.091H367.182L367.182 221.849H379.939V209.091Z" fill="white"/>
<path d="M405.455 209.091H392.697V221.849H405.455V209.091Z" fill="white"/>
<path d="M418.212 209.091H405.455V221.849H418.212L418.212 209.091Z" fill="white"/>
<path d="M456.485 209.091H443.727V221.849H456.485V209.091Z" fill="white"/>
<path d="M469.242 209.091H456.485V221.849H469.242V209.091Z" fill="white"/>
<path d="M482 209.091H469.242V221.849H482V209.091Z" fill="white"/>
<path d="M163.061 221.849H150.303L150.303 234.606H163.061V221.849Z" fill="white"/>
<path d="M175.818 221.849H163.061V234.606H175.818V221.849Z" fill="white"/>
<path d="M188.576 221.849H175.818V234.606H188.576V221.849Z" fill="white"/>
<path d="M214.091 221.849H201.333V234.606H214.091V221.849Z" fill="white"/>
<path d="M226.848 221.849H214.091V234.606H226.848V221.849Z" fill="white"/>
<path d="M252.364 221.849H239.606L239.606 234.606H252.364V221.849Z" fill="white"/>
<path d="M303.394 221.849H290.636V234.606H303.394L303.394 221.849Z" fill="white"/>
<path d="M316.152 221.849H303.394L303.394 234.606H316.152V221.849Z" fill="white"/>
<path d="M328.909 221.849H316.152V234.606H328.909V221.849Z" fill="white"/>
<path d="M367.182 221.849H354.424V234.606H367.182V221.849Z" fill="white"/>
<path d="M392.697 221.849H379.939V234.606H392.697V221.849Z" fill="white"/>
<path d="M418.212 221.849H405.455V234.606H418.212V221.849Z" fill="white"/>
<path d="M443.727 221.849H430.97V234.606H443.727L443.727 221.849Z" fill="white"/>
<path d="M469.242 221.849H456.485L456.485 234.606H469.242V221.849Z" fill="white"/>
<path d="M73.7576 234.606H61V247.364H73.7576V234.606Z" fill="white"/>
<path d="M99.2727 234.606H86.5152V247.364H99.2727V234.606Z" fill="white"/>
<path d="M112.03 234.606H99.2727V247.364H112.03V234.606Z" fill="white"/>
<path d="M137.545 234.606H124.788V247.364H137.545V234.606Z" fill="white"/>
<path d="M150.303 234.606L137.545 234.606V247.364H150.303L150.303 234.606Z" fill="white"/>
<path d="M163.061 234.606H150.303L150.303 247.364H163.061V234.606Z" fill="white"/>
<path d="M188.576 234.606H175.818L175.818 247.364H188.576V234.606Z" fill="white"/>
<path d="M201.333 234.606H188.576V247.364H201.333L201.333 234.606Z" fill="white"/>
<path d="M214.091 234.606H201.333L201.333 247.364H214.091V234.606Z" fill="white"/>
<path d="M252.364 234.606H239.606V247.364H252.364V234.606Z" fill="white"/>
<path d="M265.121 234.606L252.364 234.606V247.364H265.121V234.606Z" fill="white"/>
<path d="M303.394 234.606H290.636V247.364H303.394V234.606Z" fill="white"/>
<path d="M316.152 234.606H303.394V247.364H316.152V234.606Z" fill="white"/>
<path d="M328.909 234.606H316.152V247.364H328.909V234.606Z" fill="white"/>
<path d="M341.667 234.606L328.909 234.606V247.364H341.667V234.606Z" fill="white"/>
<path d="M354.424 234.606L341.667 234.606V247.364H354.424V234.606Z" fill="white"/>
<path d="M379.939 234.606H367.182L367.182 247.364H379.939V234.606Z" fill="white"/>
<path d="M392.697 234.606H379.939V247.364H392.697V234.606Z" fill="white"/>
<path d="M418.212 234.606H405.455V247.364H418.212V234.606Z" fill="white"/>
<path d="M430.97 234.606H418.212V247.364H430.97V234.606Z" fill="white"/>
<path d="M469.242 234.606H456.485V247.364H469.242V234.606Z" fill="white"/>
<path d="M482 234.606L469.242 234.606V247.364H482V234.606Z" fill="white"/>
<path d="M124.788 247.364H112.03V260.121H124.788L124.788 247.364Z" fill="white"/>
<path d="M163.061 247.364H150.303L150.303 260.121H163.061V247.364Z" fill="white"/>
<path d="M175.818 247.364H163.061V260.121H175.818L175.818 247.364Z" fill="white"/>
<path d="M201.333 247.364H188.576L188.576 260.121H201.333V247.364Z" fill="white"/>
<path d="M214.091 247.364H201.333V260.121H214.091V247.364Z" fill="white"/>
<path d="M226.848 247.364L214.091 247.364V260.121H226.848V247.364Z" fill="white"/>
<path d="M252.364 247.364H239.606V260.121H252.364V247.364Z" fill="white"/>
<path d="M277.879 247.364L265.121 247.364V260.121H277.879V247.364Z" fill="white"/>
<path d="M290.636 247.364L277.879 247.364V260.121H290.636V247.364Z" fill="white"/>
<path d="M303.394 247.364H290.636V260.121H303.394V247.364Z" fill="white"/>
<path d="M328.909 247.364H316.152V260.121H328.909V247.364Z" fill="white"/>
<path d="M341.667 247.364H328.909V260.121H341.667V247.364Z" fill="white"/>
<path d="M405.455 247.364H392.697V260.121H405.455V247.364Z" fill="white"/>
<path d="M430.97 247.364H418.212L418.212 260.121H430.97V247.364Z" fill="white"/>
<path d="M443.727 247.364L430.97 247.364V260.121H443.727V247.364Z" fill="white"/>
<path d="M482 247.364H469.242L469.242 260.121H482V247.364Z" fill="white"/>
<path d="M73.7576 260.121H61V272.879H73.7576V260.121Z" fill="white"/>
<path d="M99.2727 260.121H86.5152V272.879H99.2727V260.121Z" fill="white"/>
<path d="M124.788 260.121H112.03V272.879H124.788V260.121Z" fill="white"/>
<path d="M150.303 260.121H137.545V272.879H150.303L150.303 260.121Z" fill="white"/>
<path d="M163.061 260.121H150.303L150.303 272.879H163.061V260.121Z" fill="white"/>
<path d="M188.576 260.121H175.818L175.818 272.879H188.576L188.576 260.121Z" fill="white"/>
<path d="M239.606 260.121H226.848V272.879H239.606L239.606 260.121Z" fill="white"/>
<path d="M265.121 260.121H252.364V272.879H265.121V260.121Z" fill="white"/>
<path d="M277.879 260.121H265.121V272.879H277.879V260.121Z" fill="white"/>
<path d="M290.636 260.121H277.879V272.879H290.636V260.121Z" fill="white"/>
<path d="M341.667 260.121H328.909L328.909 272.879H341.667V260.121Z" fill="white"/>
<path d="M367.182 260.121H354.424V272.879H367.182V260.121Z" fill="white"/>
<path d="M379.939 260.121H367.182V272.879H379.939V260.121Z" fill="white"/>
<path d="M392.697 260.121H379.939V272.879H392.697V260.121Z" fill="white"/>
<path d="M456.485 260.121H443.727L443.727 272.879H456.485V260.121Z" fill="white"/>
<path d="M482 260.121H469.242V272.879H482V260.121Z" fill="white"/>
<path d="M73.7576 272.879H61V285.636H73.7576V272.879Z" fill="white"/>
<path d="M86.5152 272.879H73.7576V285.636H86.5152V272.879Z" fill="white"/>
<path d="M99.2727 272.879H86.5152V285.636H99.2727V272.879Z" fill="white"/>
<path d="M112.03 272.879H99.2727V285.636H112.03V272.879Z" fill="white"/>
<path d="M201.333 272.879L188.576 272.879L188.576 285.636H201.333V272.879Z" fill="white"/>
<path d="M226.848 272.879L214.091 272.879V285.636H226.848V272.879Z" fill="white"/>
<path d="M252.364 272.879H239.606L239.606 285.636H252.364V272.879Z" fill="white"/>
<path d="M290.636 272.879H277.879L277.879 285.636H290.636V272.879Z" fill="white"/>
<path d="M328.909 272.879L316.152 272.879V285.636H328.909L328.909 272.879Z" fill="white"/>
<path d="M354.424 272.879H341.667L341.667 285.636H354.424V272.879Z" fill="white"/>
<path d="M367.182 272.879H354.424V285.636H367.182V272.879Z" fill="white"/>
<path d="M379.939 272.879H367.182V285.636H379.939V272.879Z" fill="white"/>
<path d="M392.697 272.879H379.939V285.636H392.697V272.879Z" fill="white"/>
<path d="M418.212 272.879H405.455V285.636H418.212V272.879Z" fill="white"/>
<path d="M443.727 272.879L430.97 272.879V285.636H443.727L443.727 272.879Z" fill="white"/>
<path d="M456.485 272.879H443.727L443.727 285.636H456.485V272.879Z" fill="white"/>
<path d="M469.242 272.879H456.485V285.636H469.242L469.242 272.879Z" fill="white"/>
<path d="M124.788 285.636H112.03V298.394H124.788V285.636Z" fill="white"/>
<path d="M150.303 285.636H137.545V298.394H150.303V285.636Z" fill="white"/>
<path d="M163.061 285.636H150.303V298.394H163.061V285.636Z" fill="white"/>
<path d="M188.576 285.636H175.818V298.394H188.576L188.576 285.636Z" fill="white"/>
<path d="M201.333 285.636H188.576L188.576 298.394H201.333V285.636Z" fill="white"/>
<path d="M239.606 285.636H226.848V298.394H239.606L239.606 285.636Z" fill="white"/>
<path d="M277.879 285.636H265.121V298.394H277.879L277.879 285.636Z" fill="white"/>
<path d="M290.636 285.636H277.879L277.879 298.394H290.636V285.636Z" fill="white"/>
<path d="M303.394 285.636H290.636V298.394H303.394V285.636Z" fill="white"/>
<path d="M328.909 285.636H316.152V298.394H328.909V285.636Z" fill="white"/>
<path d="M341.667 285.636H328.909V298.394H341.667L341.667 285.636Z" fill="white"/>
<path d="M418.212 285.636H405.455V298.394H418.212V285.636Z" fill="white"/>
<path d="M443.727 285.636H430.97V298.394H443.727V285.636Z" fill="white"/>
<path d="M456.485 285.636H443.727V298.394H456.485V285.636Z" fill="white"/>
<path d="M73.7576 298.394H61V311.152H73.7576V298.394Z" fill="white"/>
<path d="M99.2727 298.394H86.5152V311.152H99.2727V298.394Z" fill="white"/>
<path d="M112.03 298.394L99.2727 298.394V311.152H112.03V298.394Z" fill="white"/>
<path d="M137.545 298.394H124.788L124.788 311.152H137.545L137.545 298.394Z" fill="white"/>
<path d="M175.818 298.394H163.061V311.152H175.818L175.818 298.394Z" fill="white"/>
<path d="M188.576 298.394H175.818L175.818 311.152H188.576V298.394Z" fill="white"/>
<path d="M252.364 298.394L239.606 298.394L239.606 311.152H252.364V298.394Z" fill="white"/>
<path d="M277.879 298.394H265.121V311.152H277.879V298.394Z" fill="white"/>
<path d="M316.152 298.394H303.394L303.394 311.152H316.152V298.394Z" fill="white"/>
<path d="M328.909 298.394H316.152V311.152H328.909V298.394Z" fill="white"/>
<path d="M354.424 298.394L341.667 298.394L341.667 311.152H354.424V298.394Z" fill="white"/>
<path d="M379.939 298.394H367.182V311.152H379.939V298.394Z" fill="white"/>
<path d="M430.97 298.394H418.212L418.212 311.152H430.97V298.394Z" fill="white"/>
<path d="M469.242 298.394L456.485 298.394L456.485 311.152H469.242V298.394Z" fill="white"/>
<path d="M86.5152 311.152H73.7576V323.909H86.5152V311.152Z" fill="white"/>
<path d="M124.788 311.152H112.03V323.909H124.788L124.788 311.152Z" fill="white"/>
<path d="M137.545 311.152H124.788L124.788 323.909H137.545V311.152Z" fill="white"/>
<path d="M150.303 311.151L137.545 311.152V323.909H150.303V311.151Z" fill="white"/>
<path d="M201.333 311.151L188.576 311.152L188.576 323.909H201.333V311.151Z" fill="white"/>
<path d="M277.879 311.152H265.121V323.909H277.879V311.152Z" fill="white"/>
<path d="M303.394 311.152L290.636 311.151V323.909H303.394L303.394 311.152Z" fill="white"/>
<path d="M316.152 311.152H303.394L303.394 323.909H316.152V311.152Z" fill="white"/>
<path d="M341.667 311.152H328.909L328.909 323.909H341.667L341.667 311.152Z" fill="white"/>
<path d="M354.424 311.152H341.667L341.667 323.909H354.424V311.152Z" fill="white"/>
<path d="M379.939 311.152H367.182V323.909H379.939V311.152Z" fill="white"/>
<path d="M418.212 311.152L405.455 311.151V323.909H418.212L418.212 311.152Z" fill="white"/>
<path d="M443.727 311.151L430.97 311.152V323.909H443.727V311.151Z" fill="white"/>
<path d="M469.242 311.152H456.485V323.909H469.242V311.152Z" fill="white"/>
<path d="M482 311.151L469.242 311.152V323.909H482V311.151Z" fill="white"/>
<path d="M73.7576 323.909L61 323.909V336.667H73.7576V323.909Z" fill="white"/>
<path d="M112.03 323.909L99.2727 323.909V336.667H112.03V323.909Z" fill="white"/>
<path d="M175.818 323.909H163.061V336.667H175.818V323.909Z" fill="white"/>
<path d="M188.576 323.909L175.818 323.909V336.667H188.576L188.576 323.909Z" fill="white"/>
<path d="M201.333 323.909H188.576L188.576 336.667H201.333V323.909Z" fill="white"/>
<path d="M214.091 323.909L201.333 323.909V336.667H214.091V323.909Z" fill="white"/>
<path d="M341.667 323.909H328.909V336.667H341.667V323.909Z" fill="white"/>
<path d="M354.424 323.909H341.667V336.667H354.424V323.909Z" fill="white"/>
<path d="M367.182 323.909H354.424V336.667H367.182L367.182 323.909Z" fill="white"/>
<path d="M392.697 323.909L379.939 323.909V336.667H392.697V323.909Z" fill="white"/>
<path d="M430.97 323.909H418.212L418.212 336.667H430.97V323.909Z" fill="white"/>
<path d="M456.485 323.909H443.727L443.727 336.667H456.485L456.485 323.909Z" fill="white"/>
<path d="M469.242 323.909H456.485L456.485 336.667H469.242V323.909Z" fill="white"/>
<path d="M482 323.909H469.242V336.667H482V323.909Z" fill="white"/>
<path d="M73.7576 336.667H61V349.424H73.7576V336.667Z" fill="white"/>
<path d="M99.2727 336.667L86.5152 336.667V349.424H99.2727L99.2727 336.667Z" fill="white"/>
<path d="M150.303 336.667H137.545V349.424H150.303V336.667Z" fill="white"/>
<path d="M163.061 336.667L150.303 336.667V349.424H163.061V336.667Z" fill="white"/>
<path d="M188.576 336.667H175.818L175.818 349.424H188.576V336.667Z" fill="white"/>
<path d="M201.333 336.667H188.576V349.424H201.333V336.667Z" fill="white"/>
<path d="M226.848 336.667L214.091 336.667V349.424H226.848V336.667Z" fill="white"/>
<path d="M239.606 336.667H226.848V349.424H239.606V336.667Z" fill="white"/>
<path d="M290.636 336.667H277.879V349.424H290.636V336.667Z" fill="white"/>
<path d="M303.394 336.667H290.636V349.424H303.394V336.667Z" fill="white"/>
<path d="M316.152 336.667H303.394V349.424H316.152V336.667Z" fill="white"/>
<path d="M328.909 336.667L316.152 336.667V349.424H328.909L328.909 336.667Z" fill="white"/>
<path d="M367.182 336.667H354.424V349.424H367.182V336.667Z" fill="white"/>
<path d="M405.455 336.667L392.697 336.667V349.424H405.455V336.667Z" fill="white"/>
<path d="M418.212 336.667L405.455 336.667V349.424H418.212L418.212 336.667Z" fill="white"/>
<path d="M430.97 336.667H418.212L418.212 349.424H430.97V336.667Z" fill="white"/>
<path d="M443.727 336.667H430.97V349.424H443.727L443.727 336.667Z" fill="white"/>
<path d="M456.485 336.667H443.727L443.727 349.424H456.485V336.667Z" fill="white"/>
<path d="M469.242 336.667H456.485V349.424H469.242V336.667Z" fill="white"/>
<path d="M73.7576 349.424H61V362.182H73.7576V349.424Z" fill="white"/>
<path d="M112.03 349.424L99.2727 349.424L99.2727 362.182H112.03V349.424Z" fill="white"/>
<path d="M137.545 349.424L124.788 349.424V362.182H137.545L137.545 349.424Z" fill="white"/>
<path d="M175.818 349.424H163.061V362.182H175.818L175.818 349.424Z" fill="white"/>
<path d="M201.333 349.424H188.576L188.576 362.182H201.333V349.424Z" fill="white"/>
<path d="M214.091 349.424H201.333V362.182H214.091V349.424Z" fill="white"/>
<path d="M239.606 349.424H226.848V362.182H239.606V349.424Z" fill="white"/>
<path d="M252.364 349.424L239.606 349.424V362.182H252.364V349.424Z" fill="white"/>
<path d="M265.121 349.424H252.364V362.182H265.121V349.424Z" fill="white"/>
<path d="M303.394 349.424H290.636V362.182H303.394V349.424Z" fill="white"/>
<path d="M316.152 349.424H303.394V362.182H316.152V349.424Z" fill="white"/>
<path d="M328.909 349.424H316.152V362.182H328.909V349.424Z" fill="white"/>
<path d="M341.667 349.424L328.909 349.424V362.182H341.667V349.424Z" fill="white"/>
<path d="M367.182 349.424H354.424V362.182H367.182V349.424Z" fill="white"/>
<path d="M379.939 349.424L367.182 349.424V362.182H379.939V349.424Z" fill="white"/>
<path d="M443.727 349.424H430.97V362.182H443.727V349.424Z" fill="white"/>
<path d="M469.242 349.424H456.485L456.485 362.182H469.242V349.424Z" fill="white"/>
<path d="M482 349.424L469.242 349.424V362.182H482V349.424Z" fill="white"/>
<path d="M73.7576 362.182H61V374.939H73.7576V362.182Z" fill="white"/>
<path d="M86.5152 362.182L73.7576 362.182V374.939H86.5152V362.182Z" fill="white"/>
<path d="M99.2727 362.182L86.5152 362.182V374.939H99.2727L99.2727 362.182Z" fill="white"/>
<path d="M150.303 362.182L137.545 362.182L137.545 374.939H150.303V362.182Z" fill="white"/>
<path d="M163.061 362.182L150.303 362.182V374.939H163.061V362.182Z" fill="white"/>
<path d="M175.818 362.182H163.061V374.939H175.818V362.182Z" fill="white"/>
<path d="M226.848 362.182H214.091V374.939H226.848V362.182Z" fill="white"/>
<path d="M252.364 362.182H239.606L239.606 374.939H252.364V362.182Z" fill="white"/>
<path d="M303.394 362.182H290.636V374.939H303.394V362.182Z" fill="white"/>
<path d="M328.909 362.182H316.152V374.939H328.909V362.182Z" fill="white"/>
<path d="M341.667 362.182H328.909V374.939H341.667V362.182Z" fill="white"/>
<path d="M379.939 362.182H367.182L367.182 374.939H379.939V362.182Z" fill="white"/>
<path d="M392.697 362.182L379.939 362.182V374.939H392.697V362.182Z" fill="white"/>
<path d="M405.455 362.182H392.697V374.939H405.455V362.182Z" fill="white"/>
<path d="M418.212 362.182H405.455V374.939H418.212V362.182Z" fill="white"/>
<path d="M430.97 362.182L418.212 362.182V374.939H430.97V362.182Z" fill="white"/>
<path d="M175.818 374.939H163.061V387.697H175.818V374.939Z" fill="white"/>
<path d="M188.576 374.939L175.818 374.939V387.697H188.576V374.939Z" fill="white"/>
<path d="M214.091 374.939L201.333 374.939V387.697H214.091V374.939Z" fill="white"/>
<path d="M265.121 374.939L252.364 374.939V387.697H265.121V374.939Z" fill="white"/>
<path d="M290.636 374.939L277.879 374.939V387.697H290.636V374.939Z" fill="white"/>
<path d="M328.909 374.939H316.152V387.697H328.909V374.939Z" fill="white"/>
<path d="M341.667 374.939H328.909V387.697H341.667V374.939Z" fill="white"/>
<path d="M354.424 374.939L341.667 374.939V387.697H354.424V374.939Z" fill="white"/>
<path d="M367.182 374.939L354.424 374.939V387.697H367.182L367.182 374.939Z" fill="white"/>
<path d="M379.939 374.939H367.182L367.182 387.697H379.939V374.939Z" fill="white"/>
<path d="M430.97 374.939H418.212L418.212 387.697H430.97V374.939Z" fill="white"/>
<path d="M443.727 374.939L430.97 374.939V387.697H443.727V374.939Z" fill="white"/>
<path d="M456.485 374.939H443.727V387.697H456.485V374.939Z" fill="white"/>
<path d="M175.818 387.697H163.061V400.455H175.818V387.697Z" fill="white"/>
<path d="M201.333 387.697H188.576L188.576 400.455H201.333L201.333 387.697Z" fill="white"/>
<path d="M214.091 387.697H201.333L201.333 400.455H214.091V387.697Z" fill="white"/>
<path d="M226.848 387.697H214.091V400.455H226.848V387.697Z" fill="white"/>
<path d="M252.364 387.697H239.606V400.455H252.364V387.697Z" fill="white"/>
<path d="M277.879 387.697H265.121V400.455H277.879L277.879 387.697Z" fill="white"/>
<path d="M290.636 387.697H277.879L277.879 400.455H290.636V387.697Z" fill="white"/>
<path d="M316.152 387.697H303.394V400.455H316.152V387.697Z" fill="white"/>
<path d="M328.909 387.697H316.152V400.455H328.909V387.697Z" fill="white"/>
<path d="M379.939 387.697H367.182L367.182 400.455H379.939V387.697Z" fill="white"/>
<path d="M405.455 387.697H392.697V400.455H405.455V387.697Z" fill="white"/>
<path d="M430.97 387.697H418.212V400.455H430.97V387.697Z" fill="white"/>
<path d="M443.727 387.697H430.97V400.455H443.727V387.697Z" fill="white"/>
<path d="M456.485 387.697H443.727V400.455H456.485V387.697Z" fill="white"/>
<path d="M469.242 387.697H456.485V400.455H469.242V387.697Z" fill="white"/>
<path d="M482 387.697H469.242V400.455H482V387.697Z" fill="white"/>
<path d="M175.818 400.455H163.061V413.212H175.818V400.455Z" fill="white"/>
<path d="M188.576 400.455H175.818V413.212H188.576L188.576 400.455Z" fill="white"/>
<path d="M201.333 400.455H188.576L188.576 413.212H201.333V400.455Z" fill="white"/>
<path d="M214.091 400.455H201.333V413.212H214.091V400.455Z" fill="white"/>
<path d="M226.848 400.455H214.091V413.212H226.848V400.455Z" fill="white"/>
<path d="M239.606 400.455H226.848V413.212H239.606L239.606 400.455Z" fill="white"/>
<path d="M277.879 400.455H265.121V413.212H277.879V400.455Z" fill="white"/>
<path d="M290.636 400.455H277.879V413.212H290.636V400.455Z" fill="white"/>
<path d="M303.394 400.455H290.636V413.212H303.394L303.394 400.455Z" fill="white"/>
<path d="M328.909 400.455H316.152V413.212H328.909V400.455Z" fill="white"/>
<path d="M341.667 400.455L328.909 400.455V413.212H341.667V400.455Z" fill="white"/>
<path d="M354.424 400.455H341.667V413.212H354.424V400.455Z" fill="white"/>
<path d="M367.182 400.455L354.424 400.455V413.212H367.182L367.182 400.455Z" fill="white"/>
<path d="M379.939 400.455H367.182L367.182 413.212H379.939V400.455Z" fill="white"/>
<path d="M430.97 400.455H418.212V413.212H430.97V400.455Z" fill="white"/>
<path d="M443.727 400.455H430.97V413.212H443.727V400.455Z" fill="white"/>
<path d="M482 400.455H469.242L469.242 413.212H482V400.455Z" fill="white"/>
<path d="M175.818 413.212H163.061V425.97H175.818V413.212Z" fill="white"/>
<path d="M188.576 413.212H175.818V425.97H188.576V413.212Z" fill="white"/>
<path d="M239.606 413.212H226.848V425.97H239.606V413.212Z" fill="white"/>
<path d="M252.364 413.212L239.606 413.212V425.97H252.364V413.212Z" fill="white"/>
<path d="M265.121 413.212L252.364 413.212V425.97H265.121V413.212Z" fill="white"/>
<path d="M277.879 413.212H265.121V425.97H277.879V413.212Z" fill="white"/>
<path d="M290.636 413.212H277.879V425.97H290.636V413.212Z" fill="white"/>
<path d="M316.152 413.212H303.394L303.394 425.97H316.152V413.212Z" fill="white"/>
<path d="M341.667 413.212H328.909L328.909 425.97H341.667V413.212Z" fill="white"/>
<path d="M354.424 413.212H341.667V425.97H354.424V413.212Z" fill="white"/>
<path d="M379.939 413.212H367.182L367.182 425.97H379.939V413.212Z" fill="white"/>
<path d="M392.697 413.212L379.939 413.212V425.97H392.697V413.212Z" fill="white"/>
<path d="M405.455 413.212H392.697V425.97H405.455V413.212Z" fill="white"/>
<path d="M418.212 413.212L405.455 413.212V425.97H418.212L418.212 413.212Z" fill="white"/>
<path d="M430.97 413.212H418.212L418.212 425.97H430.97V413.212Z" fill="white"/>
<path d="M456.485 413.212L443.727 413.212L443.727 425.97H456.485V413.212Z" fill="white"/>
<path d="M482 413.212H469.242V425.97H482V413.212Z" fill="white"/>
<path d="M175.818 425.97H163.061V438.727H175.818V425.97Z" fill="white"/>
<path d="M188.576 425.97H175.818V438.727H188.576V425.97Z" fill="white"/>
<path d="M226.848 425.97L214.091 425.97V438.727H226.848V425.97Z" fill="white"/>
<path d="M277.879 425.97H265.121V438.727H277.879V425.97Z" fill="white"/>
<path d="M303.394 425.97H290.636V438.727H303.394L303.394 425.97Z" fill="white"/>
<path d="M354.424 425.97H341.667L341.667 438.727H354.424V425.97Z" fill="white"/>
<path d="M379.939 425.97H367.182V438.727H379.939V425.97Z" fill="white"/>
<path d="M405.455 425.97H392.697V438.727H405.455V425.97Z" fill="white"/>
<path d="M418.212 425.97H405.455V438.727H418.212V425.97Z" fill="white"/>
<path d="M456.485 425.97H443.727V438.727H456.485V425.97Z" fill="white"/>
<path d="M482 425.97H469.242V438.727H482V425.97Z" fill="white"/>
<path d="M214.091 438.727L201.333 438.727V451.485H214.091V438.727Z" fill="white"/>
<path d="M226.848 438.727H214.091V451.485H226.848V438.727Z" fill="white"/>
<path d="M252.364 438.727H239.606V451.485H252.364V438.727Z" fill="white"/>
<path d="M265.121 438.727L252.364 438.727V451.485H265.121V438.727Z" fill="white"/>
<path d="M316.152 438.727L303.394 438.727L303.394 451.485H316.152V438.727Z" fill="white"/>
<path d="M341.667 438.727L328.909 438.727V451.485H341.667L341.667 438.727Z" fill="white"/>
<path d="M354.424 438.727H341.667L341.667 451.485H354.424V438.727Z" fill="white"/>
<path d="M379.939 438.727H367.182V451.485H379.939V438.727Z" fill="white"/>
<path d="M418.212 438.727H405.455V451.485H418.212V438.727Z" fill="white"/>
<path d="M443.727 438.727L430.97 438.727V451.485H443.727L443.727 438.727Z" fill="white"/>
<path d="M456.485 438.727H443.727L443.727 451.485H456.485V438.727Z" fill="white"/>
<path d="M469.242 438.727H456.485V451.485H469.242L469.242 438.727Z" fill="white"/>
<path d="M482 438.727H469.242L469.242 451.485H482V438.727Z" fill="white"/>
<path d="M188.576 451.485H175.818V464.242H188.576V451.485Z" fill="white"/>
<path d="M226.848 451.485H214.091V464.242H226.848V451.485Z" fill="white"/>
<path d="M252.364 451.485H239.606V464.242H252.364V451.485Z" fill="white"/>
<path d="M290.636 451.485H277.879V464.242H290.636V451.485Z" fill="white"/>
<path d="M303.394 451.485L290.636 451.485V464.242H303.394L303.394 451.485Z" fill="white"/>
<path d="M316.152 451.485H303.394L303.394 464.242H316.152V451.485Z" fill="white"/>
<path d="M328.909 451.485H316.152V464.242H328.909L328.909 451.485Z" fill="white"/>
<path d="M341.667 451.485H328.909L328.909 464.242H341.667V451.485Z" fill="white"/>
<path d="M405.455 451.485L392.697 451.485V464.242H405.455V451.485Z" fill="white"/>
<path d="M456.485 451.485H443.727L443.727 464.242H456.485V451.485Z" fill="white"/>
<path d="M469.242 451.485H456.485V464.242H469.242V451.485Z" fill="white"/>
<path d="M482 451.485H469.242V464.242H482V451.485Z" fill="white"/>
<path d="M175.818 464.242L163.061 464.242V477H175.818L175.818 464.242Z" fill="white"/>
<path d="M239.606 464.242H226.848V477H239.606L239.606 464.242Z" fill="white"/>
<path d="M252.364 464.242H239.606L239.606 477H252.364V464.242Z" fill="white"/>
<path d="M265.121 464.242L252.364 464.242V477H265.121V464.242Z" fill="white"/>
<path d="M316.152 464.242H303.394L303.394 477H316.152V464.242Z" fill="white"/>
<path d="M328.909 464.242H316.152V477H328.909V464.242Z" fill="white"/>
<path d="M354.424 464.242L341.667 464.242L341.667 477H354.424V464.242Z" fill="white"/>
<path d="M367.182 464.242H354.424V477H367.182V464.242Z" fill="white"/>
<path d="M379.939 464.242H367.182V477H379.939V464.242Z" fill="white"/>
<path d="M392.697 464.242L379.939 464.242V477H392.697V464.242Z" fill="white"/>
<path d="M405.455 464.242H392.697V477H405.455V464.242Z" fill="white"/>
<path d="M418.212 464.242L405.455 464.242V477H418.212V464.242Z" fill="white"/>
<path d="M430.97 464.242H418.212V477H430.97V464.242Z" fill="white"/>
<path d="M443.727 464.242L430.97 464.242V477H443.727L443.727 464.242Z" fill="white"/>
<path d="M61 56V145.303H150.303V56H61ZM136.908 131.908H74.3955V69.3955H136.908V131.908Z" fill="white"/>
<path d="M392.697 56V145.303H482V56H392.697ZM468.605 131.908H406.092V69.3955H468.605V131.908Z" fill="white"/>
<path d="M61 387.697V477H150.303V387.697H61ZM136.908 463.605H74.3955V401.092H136.908V463.605Z" fill="white"/>
<path d="M124.788 81.5151H86.5152V119.788H124.788V81.5151Z" fill="white"/>
<path d="M456.485 81.5151H418.212V119.788H456.485V81.5151Z" fill="white"/>
<path d="M124.788 413.212H86.5152V451.485H124.788V413.212Z" fill="white"/>
</svg>
