<svg width="760" height="760" viewBox="0 0 760 760" fill="none" xmlns="http://www.w3.org/2000/svg">
<rect width="760" height="760" fill="white"/>
<path d="M157.49 678C154.058 678 150.794 677.41 147.699 676.229C144.661 674.993 141.96 673.194 139.596 670.833C137.289 668.472 135.432 665.549 134.026 662.064C132.675 658.522 132 654.447 132 649.837C132 645.284 132.675 641.237 134.026 637.695C135.376 634.098 137.233 631.062 139.596 628.589C141.96 626.115 144.745 624.232 147.952 622.939C151.16 621.646 154.592 621 158.25 621C161.738 621 164.889 621.731 167.703 623.192C170.516 624.598 172.852 626.2 174.709 627.999L167.872 635.672C166.578 634.491 165.143 633.536 163.567 632.805C162.048 632.074 160.275 631.709 158.25 631.709C156.28 631.709 154.48 632.13 152.848 632.973C151.216 633.76 149.781 634.913 148.543 636.43C147.362 637.948 146.433 639.803 145.758 641.996C145.083 644.188 144.745 646.661 144.745 649.416C144.745 655.093 146.039 659.506 148.628 662.654C151.216 665.746 154.592 667.291 158.756 667.291C160.726 667.291 162.526 666.842 164.158 665.942C165.846 665.043 167.365 663.862 168.716 662.401L175.553 669.905C170.995 675.302 164.974 678 157.49 678Z" fill="black"/>
<path d="M203.373 678C200.109 678 197.099 677.382 194.342 676.145C191.641 674.908 189.306 673.081 187.336 670.664C185.423 668.247 183.932 665.268 182.863 661.726C181.794 658.129 181.259 653.969 181.259 649.247C181.259 644.638 181.794 640.59 182.863 637.105C183.932 633.564 185.423 630.612 187.336 628.251C189.306 625.834 191.641 624.036 194.342 622.855C197.099 621.618 200.109 621 203.373 621C206.637 621 209.619 621.618 212.32 622.855C215.077 624.036 217.412 625.834 219.325 628.251C221.295 630.612 222.814 633.564 223.883 637.105C224.952 640.59 225.487 644.638 225.487 649.247C225.487 653.969 224.952 658.129 223.883 661.726C222.814 665.268 221.295 668.247 219.325 670.664C217.412 673.081 215.077 674.908 212.32 676.145C209.619 677.382 206.637 678 203.373 678ZM203.373 667.291C206.243 667.291 208.522 665.774 210.21 662.738C211.898 659.703 212.742 655.206 212.742 649.247C212.742 643.513 211.898 639.157 210.21 636.177C208.522 633.198 206.243 631.709 203.373 631.709C200.503 631.709 198.224 633.198 196.536 636.177C194.848 639.157 194.004 643.513 194.004 649.247C194.004 655.206 194.848 659.703 196.536 662.738C198.224 665.774 200.503 667.291 203.373 667.291Z" fill="black"/>
<path d="M246.555 676.988L229.927 622.012H243.094L249.678 647.645C250.522 650.68 251.253 653.632 251.872 656.499C252.548 659.309 253.279 662.232 254.067 665.268H254.405C255.249 662.232 256.008 659.309 256.683 656.499C257.359 653.632 258.09 650.68 258.878 647.645L265.377 622.012H278.038L261.495 676.988H246.555Z" fill="black"/>
<path d="M285.517 676.988V666.533H298.346V632.467H285.517V622.012H323.667V632.467H310.838V666.533H323.667V676.988H285.517Z" fill="black"/>
<path d="M335.789 676.988V622.012H350.981C354.977 622.012 358.606 622.546 361.87 623.614C365.133 624.682 367.919 626.34 370.226 628.589C372.533 630.781 374.305 633.592 375.543 637.021C376.837 640.45 377.484 644.525 377.484 649.247C377.484 653.969 376.865 658.072 375.627 661.558C374.39 665.043 372.617 667.938 370.31 670.243C368.059 672.491 365.358 674.177 362.207 675.302C359.056 676.426 355.567 676.988 351.741 676.988H335.789ZM348.281 666.954H350.306C352.444 666.954 354.386 666.645 356.13 666.027C357.931 665.408 359.45 664.425 360.688 663.076C361.982 661.67 362.967 659.843 363.642 657.595C364.374 655.346 364.739 652.564 364.739 649.247C364.739 645.987 364.374 643.26 363.642 641.068C362.967 638.82 361.982 637.049 360.688 635.756C359.45 634.407 357.931 633.451 356.13 632.889C354.386 632.327 352.444 632.046 350.306 632.046H348.281V666.954Z" fill="black"/>
<path d="M386.398 653.547V644.778H425.224V653.547H386.398Z" fill="black"/>
<path d="M439.962 676.988V622.012H476.509V632.467H452.369V645.2H472.964V655.655H452.369V676.988H439.962Z" fill="black"/>
<path d="M487.617 676.988V622.012H507.115C510.041 622.012 512.77 622.293 515.302 622.855C517.89 623.417 520.141 624.373 522.054 625.722C524.024 627.015 525.571 628.757 526.696 630.95C527.822 633.142 528.385 635.868 528.385 639.129C528.385 643.176 527.484 646.521 525.684 649.163C523.883 651.749 521.52 653.688 518.594 654.981L531.001 676.988H517.074L506.524 657.173H500.025V676.988H487.617ZM500.025 647.308H506.102C512.798 647.308 516.146 644.581 516.146 639.129C516.146 636.43 515.302 634.547 513.614 633.479C511.926 632.411 509.422 631.877 506.102 631.877H500.025V647.308Z" fill="black"/>
<path d="M540.084 676.988V622.012H576.546V632.467H552.576V643.513H572.917V653.885H552.576V666.533H577.39V676.988H540.084Z" fill="black"/>
<path d="M590.693 676.988V622.012H627.156V632.467H603.185V643.513H623.527V653.885H603.185V666.533H628V676.988H590.693Z" fill="black"/>
<path d="M283.818 82H271.061V94.7576H283.818V82Z" fill="black"/>
<path d="M309.333 82H296.576V94.7576H309.333V82Z" fill="black"/>
<path d="M347.606 82H334.848V94.7576H347.606V82Z" fill="black"/>
<path d="M360.364 82H347.606V94.7576H360.364V82Z" fill="black"/>
<path d="M385.879 82H373.121V94.7576H385.879V82Z" fill="black"/>
<path d="M398.636 82H385.879V94.7576H398.636V82Z" fill="black"/>
<path d="M424.152 82H411.394V94.7576H424.152V82Z" fill="black"/>
<path d="M449.667 82H436.909V94.7576H449.667V82Z" fill="black"/>
<path d="M487.939 82H475.182V94.7576H487.939V82Z" fill="black"/>
<path d="M283.818 94.7576H271.061V107.515H283.818V94.7576Z" fill="black"/>
<path d="M296.576 94.7576H283.818V107.515H296.576L296.576 94.7576Z" fill="black"/>
<path d="M309.333 94.7576H296.576L296.576 107.515H309.333V94.7576Z" fill="black"/>
<path d="M322.091 94.7576L309.333 94.7576V107.515H322.091V94.7576Z" fill="black"/>
<path d="M347.606 94.7576H334.848V107.515H347.606V94.7576Z" fill="black"/>
<path d="M360.364 94.7576H347.606V107.515H360.364V94.7576Z" fill="black"/>
<path d="M411.394 94.7576H398.636V107.515H411.394L411.394 94.7576Z" fill="black"/>
<path d="M449.667 94.7576H436.909V107.515H449.667V94.7576Z" fill="black"/>
<path d="M475.182 94.7576L462.424 94.7576V107.515H475.182L475.182 94.7576Z" fill="black"/>
<path d="M487.939 94.7576H475.182L475.182 107.515H487.939V94.7576Z" fill="black"/>
<path d="M283.818 107.515H271.061V120.273H283.818V107.515Z" fill="black"/>
<path d="M322.091 107.515H309.333L309.333 120.273H322.091V107.515Z" fill="black"/>
<path d="M334.848 107.515H322.091V120.273H334.848V107.515Z" fill="black"/>
<path d="M347.606 107.515H334.848V120.273H347.606V107.515Z" fill="black"/>
<path d="M360.364 107.515H347.606V120.273H360.364V107.515Z" fill="black"/>
<path d="M436.909 107.515L424.152 107.515V120.273H436.909L436.909 107.515Z" fill="black"/>
<path d="M449.667 107.515H436.909L436.909 120.273H449.667V107.515Z" fill="black"/>
<path d="M462.424 107.515H449.667V120.273H462.424V107.515Z" fill="black"/>
<path d="M487.939 107.515H475.182L475.182 120.273H487.939V107.515Z" fill="black"/>
<path d="M322.091 120.273H309.333V133.03H322.091V120.273Z" fill="black"/>
<path d="M334.848 120.273H322.091V133.03H334.848V120.273Z" fill="black"/>
<path d="M360.364 120.273H347.606L347.606 133.03H360.364V120.273Z" fill="black"/>
<path d="M373.121 120.273L360.364 120.273V133.03H373.121V120.273Z" fill="black"/>
<path d="M385.879 120.273H373.121V133.03H385.879V120.273Z" fill="black"/>
<path d="M411.394 120.273H398.636V133.03H411.394V120.273Z" fill="black"/>
<path d="M424.152 120.273L411.394 120.273V133.03H424.152V120.273Z" fill="black"/>
<path d="M436.909 120.273H424.152V133.03H436.909V120.273Z" fill="black"/>
<path d="M449.667 120.273H436.909V133.03H449.667V120.273Z" fill="black"/>
<path d="M283.818 133.03H271.061V145.788H283.818V133.03Z" fill="black"/>
<path d="M309.333 133.03L296.576 133.03V145.788H309.333L309.333 133.03Z" fill="black"/>
<path d="M347.606 133.03H334.848V145.788H347.606L347.606 133.03Z" fill="black"/>
<path d="M373.121 133.03H360.364V145.788H373.121V133.03Z" fill="black"/>
<path d="M385.879 133.03H373.121V145.788H385.879V133.03Z" fill="black"/>
<path d="M398.636 133.03H385.879V145.788H398.636V133.03Z" fill="black"/>
<path d="M296.576 145.788H283.818L283.818 158.545H296.576L296.576 145.788Z" fill="black"/>
<path d="M309.333 145.788H296.576L296.576 158.545H309.333V145.788Z" fill="black"/>
<path d="M322.091 145.788L309.333 145.788V158.545H322.091V145.788Z" fill="black"/>
<path d="M360.364 145.788H347.606L347.606 158.545H360.364V145.788Z" fill="black"/>
<path d="M373.121 145.788H360.364V158.545H373.121V145.788Z" fill="black"/>
<path d="M385.879 145.788H373.121V158.545H385.879V145.788Z" fill="black"/>
<path d="M398.636 145.788H385.879V158.545H398.636V145.788Z" fill="black"/>
<path d="M411.394 145.788L398.636 145.788V158.545H411.394V145.788Z" fill="black"/>
<path d="M424.152 145.788H411.394V158.545H424.152V145.788Z" fill="black"/>
<path d="M475.182 145.788H462.424V158.545H475.182V145.788Z" fill="black"/>
<path d="M487.939 145.788H475.182V158.545H487.939V145.788Z" fill="black"/>
<path d="M283.818 158.545L271.061 158.545V171.303H283.818L283.818 158.545Z" fill="black"/>
<path d="M309.333 158.545H296.576L296.576 171.303H309.333V158.545Z" fill="black"/>
<path d="M334.848 158.545L322.091 158.545V171.303H334.848V158.545Z" fill="black"/>
<path d="M360.364 158.545H347.606V171.303H360.364V158.545Z" fill="black"/>
<path d="M385.879 158.545H373.121V171.303H385.879V158.545Z" fill="black"/>
<path d="M411.394 158.545H398.636V171.303H411.394V158.545Z" fill="black"/>
<path d="M436.909 158.545L424.152 158.545V171.303H436.909V158.545Z" fill="black"/>
<path d="M462.424 158.545L449.667 158.545V171.303H462.424V158.545Z" fill="black"/>
<path d="M487.939 158.545H475.182L475.182 171.303H487.939V158.545Z" fill="black"/>
<path d="M296.576 171.303H283.818L283.818 184.061H296.576L296.576 171.303Z" fill="black"/>
<path d="M309.333 171.303H296.576L296.576 184.061H309.333V171.303Z" fill="black"/>
<path d="M334.848 171.303H322.091V184.061H334.848V171.303Z" fill="black"/>
<path d="M373.121 171.303H360.364V184.061H373.121V171.303Z" fill="black"/>
<path d="M385.879 171.303H373.121V184.061H385.879V171.303Z" fill="black"/>
<path d="M398.636 171.303H385.879V184.061H398.636V171.303Z" fill="black"/>
<path d="M449.667 171.303H436.909L436.909 184.061H449.667L449.667 171.303Z" fill="black"/>
<path d="M462.424 171.303H449.667L449.667 184.061H462.424V171.303Z" fill="black"/>
<path d="M475.182 171.303H462.424V184.061H475.182L475.182 171.303Z" fill="black"/>
<path d="M181.758 184.061H169V196.818H181.758V184.061Z" fill="black"/>
<path d="M220.03 184.061H207.273V196.818H220.03V184.061Z" fill="black"/>
<path d="M232.788 184.061H220.03V196.818H232.788V184.061Z" fill="black"/>
<path d="M245.545 184.061H232.788V196.818H245.545V184.061Z" fill="black"/>
<path d="M258.303 184.061H245.545V196.818H258.303V184.061Z" fill="black"/>
<path d="M271.061 184.061H258.303V196.818H271.061V184.061Z" fill="black"/>
<path d="M283.818 184.061H271.061V196.818H283.818L283.818 184.061Z" fill="black"/>
<path d="M347.606 184.061H334.848V196.818H347.606V184.061Z" fill="black"/>
<path d="M360.364 184.061H347.606V196.818H360.364V184.061Z" fill="black"/>
<path d="M411.394 184.061H398.636V196.818H411.394V184.061Z" fill="black"/>
<path d="M436.909 184.061H424.152V196.818H436.909L436.909 184.061Z" fill="black"/>
<path d="M449.667 184.061H436.909L436.909 196.818H449.667V184.061Z" fill="black"/>
<path d="M500.697 184.061H487.939V196.818H500.697V184.061Z" fill="black"/>
<path d="M538.97 184.061H526.212V196.818H538.97V184.061Z" fill="black"/>
<path d="M564.485 184.061H551.727V196.818H564.485V184.061Z" fill="black"/>
<path d="M577.242 184.061H564.485V196.818H577.242V184.061Z" fill="black"/>
<path d="M590 184.061H577.242V196.818H590V184.061Z" fill="black"/>
<path d="M207.273 196.818L194.515 196.818V209.576H207.273L207.273 196.818Z" fill="black"/>
<path d="M220.03 196.818H207.273L207.273 209.576H220.03V196.818Z" fill="black"/>
<path d="M232.788 196.818H220.03V209.576H232.788V196.818Z" fill="black"/>
<path d="M271.061 196.818H258.303L258.303 209.576H271.061V196.818Z" fill="black"/>
<path d="M296.576 196.818L283.818 196.818L283.818 209.576H296.576V196.818Z" fill="black"/>
<path d="M309.333 196.818H296.576V209.576H309.333V196.818Z" fill="black"/>
<path d="M322.091 196.818H309.333V209.576H322.091V196.818Z" fill="black"/>
<path d="M347.606 196.818H334.848V209.576H347.606V196.818Z" fill="black"/>
<path d="M373.121 196.818L360.364 196.818V209.576H373.121V196.818Z" fill="black"/>
<path d="M385.879 196.818H373.121V209.576H385.879V196.818Z" fill="black"/>
<path d="M398.636 196.818L385.879 196.818V209.576H398.636V196.818Z" fill="black"/>
<path d="M411.394 196.818H398.636V209.576H411.394V196.818Z" fill="black"/>
<path d="M424.152 196.818H411.394V209.576H424.152V196.818Z" fill="black"/>
<path d="M436.909 196.818H424.152V209.576H436.909V196.818Z" fill="black"/>
<path d="M513.455 196.818L500.697 196.818V209.576H513.455V196.818Z" fill="black"/>
<path d="M564.485 196.818H551.727V209.576H564.485V196.818Z" fill="black"/>
<path d="M577.242 196.818H564.485V209.576H577.242V196.818Z" fill="black"/>
<path d="M207.273 209.576H194.515V222.333H207.273V209.576Z" fill="black"/>
<path d="M220.03 209.576H207.273V222.333H220.03V209.576Z" fill="black"/>
<path d="M258.303 209.576L245.545 209.576V222.333H258.303L258.303 209.576Z" fill="black"/>
<path d="M271.061 209.576H258.303L258.303 222.333H271.061V209.576Z" fill="black"/>
<path d="M296.576 209.576H283.818V222.333H296.576V209.576Z" fill="black"/>
<path d="M309.333 209.576H296.576V222.333H309.333V209.576Z" fill="black"/>
<path d="M322.091 209.576H309.333V222.333H322.091V209.576Z" fill="black"/>
<path d="M334.848 209.576H322.091V222.333H334.848V209.576Z" fill="black"/>
<path d="M347.606 209.576H334.848V222.333H347.606V209.576Z" fill="black"/>
<path d="M424.152 209.576H411.394L411.394 222.333H424.152V209.576Z" fill="black"/>
<path d="M436.909 209.576H424.152V222.333H436.909V209.576Z" fill="black"/>
<path d="M449.667 209.576L436.909 209.576V222.333H449.667V209.576Z" fill="black"/>
<path d="M462.424 209.576H449.667V222.333H462.424V209.576Z" fill="black"/>
<path d="M487.939 209.576H475.182V222.333H487.939V209.576Z" fill="black"/>
<path d="M513.455 209.576H500.697V222.333H513.455V209.576Z" fill="black"/>
<path d="M564.485 209.576H551.727V222.333H564.485V209.576Z" fill="black"/>
<path d="M220.03 222.333H207.273L207.273 235.091H220.03V222.333Z" fill="black"/>
<path d="M283.818 222.333H271.061V235.091H283.818L283.818 222.333Z" fill="black"/>
<path d="M322.091 222.333H309.333L309.333 235.091H322.091V222.333Z" fill="black"/>
<path d="M347.606 222.333H334.848V235.091H347.606V222.333Z" fill="black"/>
<path d="M385.879 222.333H373.121V235.091H385.879V222.333Z" fill="black"/>
<path d="M411.394 222.333L398.636 222.333V235.091H411.394L411.394 222.333Z" fill="black"/>
<path d="M487.939 222.333H475.182V235.091H487.939V222.333Z" fill="black"/>
<path d="M500.697 222.333H487.939V235.091H500.697V222.333Z" fill="black"/>
<path d="M513.455 222.333H500.697V235.091H513.455V222.333Z" fill="black"/>
<path d="M538.97 222.333H526.212V235.091H538.97V222.333Z" fill="black"/>
<path d="M181.758 235.091H169V247.849H181.758V235.091Z" fill="black"/>
<path d="M245.545 235.091H232.788V247.849H245.545V235.091Z" fill="black"/>
<path d="M258.303 235.091H245.545V247.849H258.303V235.091Z" fill="black"/>
<path d="M271.061 235.091L258.303 235.091V247.849H271.061V235.091Z" fill="black"/>
<path d="M334.848 235.091H322.091V247.849H334.848V235.091Z" fill="black"/>
<path d="M347.606 235.091H334.848V247.849H347.606V235.091Z" fill="black"/>
<path d="M373.121 235.091L360.364 235.091V247.849H373.121V235.091Z" fill="black"/>
<path d="M398.636 235.091H385.879L385.879 247.849H398.636V235.091Z" fill="black"/>
<path d="M424.152 235.091L411.394 235.091L411.394 247.849H424.152V235.091Z" fill="black"/>
<path d="M475.182 235.091L462.424 235.091V247.849H475.182L475.182 235.091Z" fill="black"/>
<path d="M487.939 235.091H475.182L475.182 247.849H487.939V235.091Z" fill="black"/>
<path d="M513.455 235.091H500.697V247.849H513.455V235.091Z" fill="black"/>
<path d="M526.212 235.091H513.455V247.849H526.212L526.212 235.091Z" fill="black"/>
<path d="M564.485 235.091H551.727V247.849H564.485V235.091Z" fill="black"/>
<path d="M577.242 235.091H564.485V247.849H577.242V235.091Z" fill="black"/>
<path d="M590 235.091H577.242V247.849H590V235.091Z" fill="black"/>
<path d="M271.061 247.849H258.303L258.303 260.606H271.061V247.849Z" fill="black"/>
<path d="M283.818 247.849H271.061V260.606H283.818V247.849Z" fill="black"/>
<path d="M296.576 247.849H283.818V260.606H296.576V247.849Z" fill="black"/>
<path d="M322.091 247.849H309.333V260.606H322.091V247.849Z" fill="black"/>
<path d="M334.848 247.849H322.091V260.606H334.848V247.849Z" fill="black"/>
<path d="M360.364 247.849H347.606L347.606 260.606H360.364V247.849Z" fill="black"/>
<path d="M411.394 247.849H398.636V260.606H411.394L411.394 247.849Z" fill="black"/>
<path d="M424.152 247.849H411.394L411.394 260.606H424.152V247.849Z" fill="black"/>
<path d="M436.909 247.849H424.152V260.606H436.909V247.849Z" fill="black"/>
<path d="M475.182 247.849H462.424V260.606H475.182V247.849Z" fill="black"/>
<path d="M500.697 247.849H487.939V260.606H500.697V247.849Z" fill="black"/>
<path d="M526.212 247.849H513.455V260.606H526.212V247.849Z" fill="black"/>
<path d="M551.727 247.849H538.97V260.606H551.727L551.727 247.849Z" fill="black"/>
<path d="M577.242 247.849H564.485L564.485 260.606H577.242V247.849Z" fill="black"/>
<path d="M181.758 260.606H169V273.364H181.758V260.606Z" fill="black"/>
<path d="M207.273 260.606H194.515V273.364H207.273V260.606Z" fill="black"/>
<path d="M220.03 260.606H207.273V273.364H220.03V260.606Z" fill="black"/>
<path d="M245.545 260.606H232.788V273.364H245.545V260.606Z" fill="black"/>
<path d="M258.303 260.606L245.545 260.606V273.364H258.303L258.303 260.606Z" fill="black"/>
<path d="M271.061 260.606H258.303L258.303 273.364H271.061V260.606Z" fill="black"/>
<path d="M296.576 260.606H283.818L283.818 273.364H296.576V260.606Z" fill="black"/>
<path d="M309.333 260.606H296.576V273.364H309.333L309.333 260.606Z" fill="black"/>
<path d="M322.091 260.606H309.333L309.333 273.364H322.091V260.606Z" fill="black"/>
<path d="M360.364 260.606H347.606V273.364H360.364V260.606Z" fill="black"/>
<path d="M373.121 260.606L360.364 260.606V273.364H373.121V260.606Z" fill="black"/>
<path d="M411.394 260.606H398.636V273.364H411.394V260.606Z" fill="black"/>
<path d="M424.152 260.606H411.394V273.364H424.152V260.606Z" fill="black"/>
<path d="M436.909 260.606H424.152V273.364H436.909V260.606Z" fill="black"/>
<path d="M449.667 260.606L436.909 260.606V273.364H449.667V260.606Z" fill="black"/>
<path d="M462.424 260.606L449.667 260.606V273.364H462.424V260.606Z" fill="black"/>
<path d="M487.939 260.606H475.182L475.182 273.364H487.939V260.606Z" fill="black"/>
<path d="M500.697 260.606H487.939V273.364H500.697V260.606Z" fill="black"/>
<path d="M526.212 260.606H513.455V273.364H526.212V260.606Z" fill="black"/>
<path d="M538.97 260.606H526.212V273.364H538.97V260.606Z" fill="black"/>
<path d="M577.242 260.606H564.485V273.364H577.242V260.606Z" fill="black"/>
<path d="M590 260.606L577.242 260.606V273.364H590V260.606Z" fill="black"/>
<path d="M232.788 273.364H220.03V286.121H232.788L232.788 273.364Z" fill="black"/>
<path d="M271.061 273.364H258.303L258.303 286.121H271.061V273.364Z" fill="black"/>
<path d="M283.818 273.364H271.061V286.121H283.818L283.818 273.364Z" fill="black"/>
<path d="M309.333 273.364H296.576L296.576 286.121H309.333V273.364Z" fill="black"/>
<path d="M322.091 273.364H309.333V286.121H322.091V273.364Z" fill="black"/>
<path d="M334.848 273.364L322.091 273.364V286.121H334.848V273.364Z" fill="black"/>
<path d="M360.364 273.364H347.606V286.121H360.364V273.364Z" fill="black"/>
<path d="M385.879 273.364L373.121 273.364V286.121H385.879V273.364Z" fill="black"/>
<path d="M398.636 273.364L385.879 273.364V286.121H398.636V273.364Z" fill="black"/>
<path d="M411.394 273.364H398.636V286.121H411.394V273.364Z" fill="black"/>
<path d="M436.909 273.364H424.152V286.121H436.909V273.364Z" fill="black"/>
<path d="M449.667 273.364H436.909V286.121H449.667V273.364Z" fill="black"/>
<path d="M513.455 273.364H500.697V286.121H513.455V273.364Z" fill="black"/>
<path d="M538.97 273.364H526.212L526.212 286.121H538.97V273.364Z" fill="black"/>
<path d="M551.727 273.364L538.97 273.364V286.121H551.727V273.364Z" fill="black"/>
<path d="M590 273.364H577.242L577.242 286.121H590V273.364Z" fill="black"/>
<path d="M181.758 286.121H169V298.879H181.758V286.121Z" fill="black"/>
<path d="M207.273 286.121H194.515V298.879H207.273V286.121Z" fill="black"/>
<path d="M232.788 286.121H220.03V298.879H232.788V286.121Z" fill="black"/>
<path d="M258.303 286.121H245.545V298.879H258.303L258.303 286.121Z" fill="black"/>
<path d="M271.061 286.121H258.303L258.303 298.879H271.061V286.121Z" fill="black"/>
<path d="M296.576 286.121H283.818L283.818 298.879H296.576L296.576 286.121Z" fill="black"/>
<path d="M347.606 286.121H334.848V298.879H347.606L347.606 286.121Z" fill="black"/>
<path d="M373.121 286.121H360.364V298.879H373.121V286.121Z" fill="black"/>
<path d="M385.879 286.121H373.121V298.879H385.879V286.121Z" fill="black"/>
<path d="M398.636 286.121H385.879V298.879H398.636V286.121Z" fill="black"/>
<path d="M449.667 286.121H436.909L436.909 298.879H449.667V286.121Z" fill="black"/>
<path d="M475.182 286.121H462.424V298.879H475.182V286.121Z" fill="black"/>
<path d="M487.939 286.121H475.182V298.879H487.939V286.121Z" fill="black"/>
<path d="M500.697 286.121H487.939V298.879H500.697V286.121Z" fill="black"/>
<path d="M564.485 286.121H551.727L551.727 298.879H564.485V286.121Z" fill="black"/>
<path d="M590 286.121H577.242V298.879H590V286.121Z" fill="black"/>
<path d="M181.758 298.879H169V311.636H181.758V298.879Z" fill="black"/>
<path d="M194.515 298.879H181.758V311.636H194.515V298.879Z" fill="black"/>
<path d="M207.273 298.879H194.515V311.636H207.273V298.879Z" fill="black"/>
<path d="M220.03 298.879H207.273V311.636H220.03V298.879Z" fill="black"/>
<path d="M309.333 298.879L296.576 298.879L296.576 311.636H309.333V298.879Z" fill="black"/>
<path d="M334.848 298.879L322.091 298.879V311.636H334.848V298.879Z" fill="black"/>
<path d="M360.364 298.879H347.606L347.606 311.636H360.364V298.879Z" fill="black"/>
<path d="M398.636 298.879H385.879L385.879 311.636H398.636V298.879Z" fill="black"/>
<path d="M436.909 298.879L424.152 298.879V311.636H436.909L436.909 298.879Z" fill="black"/>
<path d="M462.424 298.879H449.667L449.667 311.636H462.424V298.879Z" fill="black"/>
<path d="M475.182 298.879H462.424V311.636H475.182V298.879Z" fill="black"/>
<path d="M487.939 298.879H475.182V311.636H487.939V298.879Z" fill="black"/>
<path d="M500.697 298.879H487.939V311.636H500.697V298.879Z" fill="black"/>
<path d="M526.212 298.879H513.455V311.636H526.212V298.879Z" fill="black"/>
<path d="M551.727 298.879L538.97 298.879V311.636H551.727L551.727 298.879Z" fill="black"/>
<path d="M564.485 298.879H551.727L551.727 311.636H564.485V298.879Z" fill="black"/>
<path d="M577.242 298.879H564.485V311.636H577.242L577.242 298.879Z" fill="black"/>
<path d="M232.788 311.636H220.03V324.394H232.788V311.636Z" fill="black"/>
<path d="M258.303 311.636H245.545V324.394H258.303V311.636Z" fill="black"/>
<path d="M271.061 311.636H258.303V324.394H271.061V311.636Z" fill="black"/>
<path d="M296.576 311.636H283.818V324.394H296.576L296.576 311.636Z" fill="black"/>
<path d="M309.333 311.636H296.576L296.576 324.394H309.333V311.636Z" fill="black"/>
<path d="M347.606 311.636H334.848V324.394H347.606L347.606 311.636Z" fill="black"/>
<path d="M385.879 311.636H373.121V324.394H385.879L385.879 311.636Z" fill="black"/>
<path d="M398.636 311.636H385.879L385.879 324.394H398.636V311.636Z" fill="black"/>
<path d="M411.394 311.636H398.636V324.394H411.394V311.636Z" fill="black"/>
<path d="M436.909 311.636H424.152V324.394H436.909V311.636Z" fill="black"/>
<path d="M449.667 311.636H436.909V324.394H449.667L449.667 311.636Z" fill="black"/>
<path d="M526.212 311.636H513.455V324.394H526.212V311.636Z" fill="black"/>
<path d="M551.727 311.636H538.97V324.394H551.727V311.636Z" fill="black"/>
<path d="M564.485 311.636H551.727V324.394H564.485V311.636Z" fill="black"/>
<path d="M181.758 324.394H169V337.152H181.758V324.394Z" fill="black"/>
<path d="M207.273 324.394H194.515V337.152H207.273V324.394Z" fill="black"/>
<path d="M220.03 324.394L207.273 324.394V337.152H220.03V324.394Z" fill="black"/>
<path d="M245.545 324.394H232.788L232.788 337.152H245.545L245.545 324.394Z" fill="black"/>
<path d="M283.818 324.394H271.061V337.152H283.818L283.818 324.394Z" fill="black"/>
<path d="M296.576 324.394H283.818L283.818 337.152H296.576V324.394Z" fill="black"/>
<path d="M360.364 324.394L347.606 324.394L347.606 337.152H360.364V324.394Z" fill="black"/>
<path d="M385.879 324.394H373.121V337.152H385.879V324.394Z" fill="black"/>
<path d="M424.152 324.394H411.394L411.394 337.152H424.152V324.394Z" fill="black"/>
<path d="M436.909 324.394H424.152V337.152H436.909V324.394Z" fill="black"/>
<path d="M462.424 324.394L449.667 324.394L449.667 337.152H462.424V324.394Z" fill="black"/>
<path d="M487.939 324.394H475.182V337.152H487.939V324.394Z" fill="black"/>
<path d="M538.97 324.394H526.212L526.212 337.152H538.97V324.394Z" fill="black"/>
<path d="M577.242 324.394L564.485 324.394L564.485 337.152H577.242V324.394Z" fill="black"/>
<path d="M194.515 337.152H181.758V349.909H194.515V337.152Z" fill="black"/>
<path d="M232.788 337.152H220.03V349.909H232.788L232.788 337.152Z" fill="black"/>
<path d="M245.545 337.152H232.788L232.788 349.909H245.545V337.152Z" fill="black"/>
<path d="M258.303 337.151L245.545 337.152V349.909H258.303V337.151Z" fill="black"/>
<path d="M309.333 337.151L296.576 337.152L296.576 349.909H309.333V337.151Z" fill="black"/>
<path d="M385.879 337.152H373.121V349.909H385.879V337.152Z" fill="black"/>
<path d="M411.394 337.152L398.636 337.151V349.909H411.394L411.394 337.152Z" fill="black"/>
<path d="M424.152 337.152H411.394L411.394 349.909H424.152V337.152Z" fill="black"/>
<path d="M449.667 337.152H436.909L436.909 349.909H449.667L449.667 337.152Z" fill="black"/>
<path d="M462.424 337.152H449.667L449.667 349.909H462.424V337.152Z" fill="black"/>
<path d="M487.939 337.152H475.182V349.909H487.939V337.152Z" fill="black"/>
<path d="M526.212 337.152L513.455 337.151V349.909H526.212L526.212 337.152Z" fill="black"/>
<path d="M551.727 337.151L538.97 337.152V349.909H551.727V337.151Z" fill="black"/>
<path d="M577.242 337.152H564.485V349.909H577.242V337.152Z" fill="black"/>
<path d="M590 337.151L577.242 337.152V349.909H590V337.151Z" fill="black"/>
<path d="M181.758 349.909L169 349.909V362.667H181.758V349.909Z" fill="black"/>
<path d="M220.03 349.909L207.273 349.909V362.667H220.03V349.909Z" fill="black"/>
<path d="M283.818 349.909H271.061V362.667H283.818V349.909Z" fill="black"/>
<path d="M296.576 349.909L283.818 349.909V362.667H296.576L296.576 349.909Z" fill="black"/>
<path d="M309.333 349.909H296.576L296.576 362.667H309.333V349.909Z" fill="black"/>
<path d="M322.091 349.909L309.333 349.909V362.667H322.091V349.909Z" fill="black"/>
<path d="M449.667 349.909H436.909V362.667H449.667V349.909Z" fill="black"/>
<path d="M462.424 349.909H449.667V362.667H462.424V349.909Z" fill="black"/>
<path d="M475.182 349.909H462.424V362.667H475.182L475.182 349.909Z" fill="black"/>
<path d="M500.697 349.909L487.939 349.909V362.667H500.697V349.909Z" fill="black"/>
<path d="M538.97 349.909H526.212L526.212 362.667H538.97V349.909Z" fill="black"/>
<path d="M564.485 349.909H551.727L551.727 362.667H564.485L564.485 349.909Z" fill="black"/>
<path d="M577.242 349.909H564.485L564.485 362.667H577.242V349.909Z" fill="black"/>
<path d="M590 349.909H577.242V362.667H590V349.909Z" fill="black"/>
<path d="M181.758 362.667H169V375.424H181.758V362.667Z" fill="black"/>
<path d="M207.273 362.667L194.515 362.667V375.424H207.273L207.273 362.667Z" fill="black"/>
<path d="M258.303 362.667H245.545V375.424H258.303V362.667Z" fill="black"/>
<path d="M271.061 362.667L258.303 362.667V375.424H271.061V362.667Z" fill="black"/>
<path d="M296.576 362.667H283.818L283.818 375.424H296.576V362.667Z" fill="black"/>
<path d="M309.333 362.667H296.576V375.424H309.333V362.667Z" fill="black"/>
<path d="M334.848 362.667L322.091 362.667V375.424H334.848V362.667Z" fill="black"/>
<path d="M347.606 362.667H334.848V375.424H347.606V362.667Z" fill="black"/>
<path d="M398.636 362.667H385.879V375.424H398.636V362.667Z" fill="black"/>
<path d="M411.394 362.667H398.636V375.424H411.394V362.667Z" fill="black"/>
<path d="M424.152 362.667H411.394V375.424H424.152V362.667Z" fill="black"/>
<path d="M436.909 362.667L424.152 362.667V375.424H436.909L436.909 362.667Z" fill="black"/>
<path d="M475.182 362.667H462.424V375.424H475.182V362.667Z" fill="black"/>
<path d="M513.455 362.667L500.697 362.667V375.424H513.455V362.667Z" fill="black"/>
<path d="M526.212 362.667L513.455 362.667V375.424H526.212L526.212 362.667Z" fill="black"/>
<path d="M538.97 362.667H526.212L526.212 375.424H538.97V362.667Z" fill="black"/>
<path d="M551.727 362.667H538.97V375.424H551.727L551.727 362.667Z" fill="black"/>
<path d="M564.485 362.667H551.727L551.727 375.424H564.485V362.667Z" fill="black"/>
<path d="M577.242 362.667H564.485V375.424H577.242V362.667Z" fill="black"/>
<path d="M181.758 375.424H169V388.182H181.758V375.424Z" fill="black"/>
<path d="M220.03 375.424L207.273 375.424L207.273 388.182H220.03V375.424Z" fill="black"/>
<path d="M245.545 375.424L232.788 375.424V388.182H245.545L245.545 375.424Z" fill="black"/>
<path d="M283.818 375.424H271.061V388.182H283.818L283.818 375.424Z" fill="black"/>
<path d="M309.333 375.424H296.576L296.576 388.182H309.333V375.424Z" fill="black"/>
<path d="M322.091 375.424H309.333V388.182H322.091V375.424Z" fill="black"/>
<path d="M347.606 375.424H334.848V388.182H347.606V375.424Z" fill="black"/>
<path d="M360.364 375.424L347.606 375.424V388.182H360.364V375.424Z" fill="black"/>
<path d="M373.121 375.424H360.364V388.182H373.121V375.424Z" fill="black"/>
<path d="M411.394 375.424H398.636V388.182H411.394V375.424Z" fill="black"/>
<path d="M424.152 375.424H411.394V388.182H424.152V375.424Z" fill="black"/>
<path d="M436.909 375.424H424.152V388.182H436.909V375.424Z" fill="black"/>
<path d="M449.667 375.424L436.909 375.424V388.182H449.667V375.424Z" fill="black"/>
<path d="M475.182 375.424H462.424V388.182H475.182V375.424Z" fill="black"/>
<path d="M487.939 375.424L475.182 375.424V388.182H487.939V375.424Z" fill="black"/>
<path d="M551.727 375.424H538.97V388.182H551.727V375.424Z" fill="black"/>
<path d="M577.242 375.424H564.485L564.485 388.182H577.242V375.424Z" fill="black"/>
<path d="M590 375.424L577.242 375.424V388.182H590V375.424Z" fill="black"/>
<path d="M181.758 388.182H169V400.939H181.758V388.182Z" fill="black"/>
<path d="M194.515 388.182L181.758 388.182V400.939H194.515V388.182Z" fill="black"/>
<path d="M207.273 388.182L194.515 388.182V400.939H207.273L207.273 388.182Z" fill="black"/>
<path d="M258.303 388.182L245.545 388.182L245.545 400.939H258.303V388.182Z" fill="black"/>
<path d="M271.061 388.182L258.303 388.182V400.939H271.061V388.182Z" fill="black"/>
<path d="M283.818 388.182H271.061V400.939H283.818V388.182Z" fill="black"/>
<path d="M334.848 388.182H322.091V400.939H334.848V388.182Z" fill="black"/>
<path d="M360.364 388.182H347.606L347.606 400.939H360.364V388.182Z" fill="black"/>
<path d="M411.394 388.182H398.636V400.939H411.394V388.182Z" fill="black"/>
<path d="M436.909 388.182H424.152V400.939H436.909V388.182Z" fill="black"/>
<path d="M449.667 388.182H436.909V400.939H449.667V388.182Z" fill="black"/>
<path d="M487.939 388.182H475.182L475.182 400.939H487.939V388.182Z" fill="black"/>
<path d="M500.697 388.182L487.939 388.182V400.939H500.697V388.182Z" fill="black"/>
<path d="M513.455 388.182H500.697V400.939H513.455V388.182Z" fill="black"/>
<path d="M526.212 388.182H513.455V400.939H526.212V388.182Z" fill="black"/>
<path d="M538.97 388.182L526.212 388.182V400.939H538.97V388.182Z" fill="black"/>
<path d="M283.818 400.939H271.061V413.697H283.818V400.939Z" fill="black"/>
<path d="M296.576 400.939L283.818 400.939V413.697H296.576V400.939Z" fill="black"/>
<path d="M322.091 400.939L309.333 400.939V413.697H322.091V400.939Z" fill="black"/>
<path d="M373.121 400.939L360.364 400.939V413.697H373.121V400.939Z" fill="black"/>
<path d="M398.636 400.939L385.879 400.939V413.697H398.636V400.939Z" fill="black"/>
<path d="M436.909 400.939H424.152V413.697H436.909V400.939Z" fill="black"/>
<path d="M449.667 400.939H436.909V413.697H449.667V400.939Z" fill="black"/>
<path d="M462.424 400.939L449.667 400.939V413.697H462.424V400.939Z" fill="black"/>
<path d="M475.182 400.939L462.424 400.939V413.697H475.182L475.182 400.939Z" fill="black"/>
<path d="M487.939 400.939H475.182L475.182 413.697H487.939V400.939Z" fill="black"/>
<path d="M538.97 400.939H526.212L526.212 413.697H538.97V400.939Z" fill="black"/>
<path d="M551.727 400.939L538.97 400.939V413.697H551.727V400.939Z" fill="black"/>
<path d="M564.485 400.939H551.727V413.697H564.485V400.939Z" fill="black"/>
<path d="M283.818 413.697H271.061V426.455H283.818V413.697Z" fill="black"/>
<path d="M309.333 413.697H296.576L296.576 426.455H309.333L309.333 413.697Z" fill="black"/>
<path d="M322.091 413.697H309.333L309.333 426.455H322.091V413.697Z" fill="black"/>
<path d="M334.848 413.697H322.091V426.455H334.848V413.697Z" fill="black"/>
<path d="M360.364 413.697H347.606V426.455H360.364V413.697Z" fill="black"/>
<path d="M385.879 413.697H373.121V426.455H385.879L385.879 413.697Z" fill="black"/>
<path d="M398.636 413.697H385.879L385.879 426.455H398.636V413.697Z" fill="black"/>
<path d="M424.152 413.697H411.394V426.455H424.152V413.697Z" fill="black"/>
<path d="M436.909 413.697H424.152V426.455H436.909V413.697Z" fill="black"/>
<path d="M487.939 413.697H475.182L475.182 426.455H487.939V413.697Z" fill="black"/>
<path d="M513.455 413.697H500.697V426.455H513.455V413.697Z" fill="black"/>
<path d="M538.97 413.697H526.212V426.455H538.97V413.697Z" fill="black"/>
<path d="M551.727 413.697H538.97V426.455H551.727V413.697Z" fill="black"/>
<path d="M564.485 413.697H551.727V426.455H564.485V413.697Z" fill="black"/>
<path d="M577.242 413.697H564.485V426.455H577.242V413.697Z" fill="black"/>
<path d="M590 413.697H577.242V426.455H590V413.697Z" fill="black"/>
<path d="M283.818 426.455H271.061V439.212H283.818V426.455Z" fill="black"/>
<path d="M296.576 426.455H283.818V439.212H296.576L296.576 426.455Z" fill="black"/>
<path d="M309.333 426.455H296.576L296.576 439.212H309.333V426.455Z" fill="black"/>
<path d="M322.091 426.455H309.333V439.212H322.091V426.455Z" fill="black"/>
<path d="M334.848 426.455H322.091V439.212H334.848V426.455Z" fill="black"/>
<path d="M347.606 426.455H334.848V439.212H347.606L347.606 426.455Z" fill="black"/>
<path d="M385.879 426.455H373.121V439.212H385.879V426.455Z" fill="black"/>
<path d="M398.636 426.455H385.879V439.212H398.636V426.455Z" fill="black"/>
<path d="M411.394 426.455H398.636V439.212H411.394L411.394 426.455Z" fill="black"/>
<path d="M436.909 426.455H424.152V439.212H436.909V426.455Z" fill="black"/>
<path d="M449.667 426.455L436.909 426.455V439.212H449.667V426.455Z" fill="black"/>
<path d="M462.424 426.455H449.667V439.212H462.424V426.455Z" fill="black"/>
<path d="M475.182 426.455L462.424 426.455V439.212H475.182L475.182 426.455Z" fill="black"/>
<path d="M487.939 426.455H475.182L475.182 439.212H487.939V426.455Z" fill="black"/>
<path d="M538.97 426.455H526.212V439.212H538.97V426.455Z" fill="black"/>
<path d="M551.727 426.455H538.97V439.212H551.727V426.455Z" fill="black"/>
<path d="M590 426.455H577.242L577.242 439.212H590V426.455Z" fill="black"/>
<path d="M283.818 439.212H271.061V451.97H283.818V439.212Z" fill="black"/>
<path d="M296.576 439.212H283.818V451.97H296.576V439.212Z" fill="black"/>
<path d="M347.606 439.212H334.848V451.97H347.606V439.212Z" fill="black"/>
<path d="M360.364 439.212L347.606 439.212V451.97H360.364V439.212Z" fill="black"/>
<path d="M373.121 439.212L360.364 439.212V451.97H373.121V439.212Z" fill="black"/>
<path d="M385.879 439.212H373.121V451.97H385.879V439.212Z" fill="black"/>
<path d="M398.636 439.212H385.879V451.97H398.636V439.212Z" fill="black"/>
<path d="M424.152 439.212H411.394L411.394 451.97H424.152V439.212Z" fill="black"/>
<path d="M449.667 439.212H436.909L436.909 451.97H449.667V439.212Z" fill="black"/>
<path d="M462.424 439.212H449.667V451.97H462.424V439.212Z" fill="black"/>
<path d="M487.939 439.212H475.182L475.182 451.97H487.939V439.212Z" fill="black"/>
<path d="M500.697 439.212L487.939 439.212V451.97H500.697V439.212Z" fill="black"/>
<path d="M513.455 439.212H500.697V451.97H513.455V439.212Z" fill="black"/>
<path d="M526.212 439.212L513.455 439.212V451.97H526.212L526.212 439.212Z" fill="black"/>
<path d="M538.97 439.212H526.212L526.212 451.97H538.97V439.212Z" fill="black"/>
<path d="M564.485 439.212L551.727 439.212L551.727 451.97H564.485V439.212Z" fill="black"/>
<path d="M590 439.212H577.242V451.97H590V439.212Z" fill="black"/>
<path d="M283.818 451.97H271.061V464.727H283.818V451.97Z" fill="black"/>
<path d="M296.576 451.97H283.818V464.727H296.576V451.97Z" fill="black"/>
<path d="M334.848 451.97L322.091 451.97V464.727H334.848V451.97Z" fill="black"/>
<path d="M385.879 451.97H373.121V464.727H385.879V451.97Z" fill="black"/>
<path d="M411.394 451.97H398.636V464.727H411.394L411.394 451.97Z" fill="black"/>
<path d="M462.424 451.97H449.667L449.667 464.727H462.424V451.97Z" fill="black"/>
<path d="M487.939 451.97H475.182V464.727H487.939V451.97Z" fill="black"/>
<path d="M513.455 451.97H500.697V464.727H513.455V451.97Z" fill="black"/>
<path d="M526.212 451.97H513.455V464.727H526.212V451.97Z" fill="black"/>
<path d="M564.485 451.97H551.727V464.727H564.485V451.97Z" fill="black"/>
<path d="M590 451.97H577.242V464.727H590V451.97Z" fill="black"/>
<path d="M322.091 464.727L309.333 464.727V477.485H322.091V464.727Z" fill="black"/>
<path d="M334.848 464.727H322.091V477.485H334.848V464.727Z" fill="black"/>
<path d="M360.364 464.727H347.606V477.485H360.364V464.727Z" fill="black"/>
<path d="M373.121 464.727L360.364 464.727V477.485H373.121V464.727Z" fill="black"/>
<path d="M424.152 464.727L411.394 464.727L411.394 477.485H424.152V464.727Z" fill="black"/>
<path d="M449.667 464.727L436.909 464.727V477.485H449.667L449.667 464.727Z" fill="black"/>
<path d="M462.424 464.727H449.667L449.667 477.485H462.424V464.727Z" fill="black"/>
<path d="M487.939 464.727H475.182V477.485H487.939V464.727Z" fill="black"/>
<path d="M526.212 464.727H513.455V477.485H526.212V464.727Z" fill="black"/>
<path d="M551.727 464.727L538.97 464.727V477.485H551.727L551.727 464.727Z" fill="black"/>
<path d="M564.485 464.727H551.727L551.727 477.485H564.485V464.727Z" fill="black"/>
<path d="M577.242 464.727H564.485V477.485H577.242L577.242 464.727Z" fill="black"/>
<path d="M590 464.727H577.242L577.242 477.485H590V464.727Z" fill="black"/>
<path d="M296.576 477.485H283.818V490.242H296.576V477.485Z" fill="black"/>
<path d="M334.848 477.485H322.091V490.242H334.848V477.485Z" fill="black"/>
<path d="M360.364 477.485H347.606V490.242H360.364V477.485Z" fill="black"/>
<path d="M398.636 477.485H385.879V490.242H398.636V477.485Z" fill="black"/>
<path d="M411.394 477.485L398.636 477.485V490.242H411.394L411.394 477.485Z" fill="black"/>
<path d="M424.152 477.485H411.394L411.394 490.242H424.152V477.485Z" fill="black"/>
<path d="M436.909 477.485H424.152V490.242H436.909L436.909 477.485Z" fill="black"/>
<path d="M449.667 477.485H436.909L436.909 490.242H449.667V477.485Z" fill="black"/>
<path d="M513.455 477.485L500.697 477.485V490.242H513.455V477.485Z" fill="black"/>
<path d="M564.485 477.485H551.727L551.727 490.242H564.485V477.485Z" fill="black"/>
<path d="M577.242 477.485H564.485V490.242H577.242V477.485Z" fill="black"/>
<path d="M590 477.485H577.242V490.242H590V477.485Z" fill="black"/>
<path d="M283.818 490.242L271.061 490.242V503H283.818L283.818 490.242Z" fill="black"/>
<path d="M347.606 490.242H334.848V503H347.606L347.606 490.242Z" fill="black"/>
<path d="M360.364 490.242H347.606L347.606 503H360.364V490.242Z" fill="black"/>
<path d="M373.121 490.242L360.364 490.242V503H373.121V490.242Z" fill="black"/>
<path d="M424.152 490.242H411.394L411.394 503H424.152V490.242Z" fill="black"/>
<path d="M436.909 490.242H424.152V503H436.909V490.242Z" fill="black"/>
<path d="M462.424 490.242L449.667 490.242L449.667 503H462.424V490.242Z" fill="black"/>
<path d="M475.182 490.242H462.424V503H475.182V490.242Z" fill="black"/>
<path d="M487.939 490.242H475.182V503H487.939V490.242Z" fill="black"/>
<path d="M500.697 490.242L487.939 490.242V503H500.697V490.242Z" fill="black"/>
<path d="M513.455 490.242H500.697V503H513.455V490.242Z" fill="black"/>
<path d="M526.212 490.242L513.455 490.242V503H526.212V490.242Z" fill="black"/>
<path d="M538.97 490.242H526.212V503H538.97V490.242Z" fill="black"/>
<path d="M551.727 490.242L538.97 490.242V503H551.727L551.727 490.242Z" fill="black"/>
<path d="M169 82V171.303H258.303V82H169ZM244.908 157.908H182.395V95.3955H244.908V157.908Z" fill="black"/>
<path d="M500.697 82V171.303H590V82H500.697ZM576.605 157.908H514.092V95.3955H576.605V157.908Z" fill="black"/>
<path d="M169 413.697V503H258.303V413.697H169ZM244.908 489.605H182.395V427.092H244.908V489.605Z" fill="black"/>
<path d="M232.788 107.515H194.515V145.788H232.788V107.515Z" fill="black"/>
<path d="M564.485 107.515H526.212V145.788H564.485V107.515Z" fill="black"/>
<path d="M232.788 439.212H194.515V477.485H232.788V439.212Z" fill="black"/>
</svg>
