<svg width="602" height="210" viewBox="0 0 602 210" fill="none" xmlns="http://www.w3.org/2000/svg">
<path opacity="0.2" d="M114.2 55.8L111.96 64.2H131.42L129.32 55.8C128.013 51.2267 126.753 46.3733 125.54 41.24C124.327 36.1067 123.113 31.16 121.9 26.4H121.34C120.22 31.2533 119.053 36.2467 117.84 41.38C116.72 46.42 115.507 51.2267 114.2 55.8ZM81.16 102L109.72 10.72H134.5L163.06 102H141.22L135.62 80.3H107.76L102.16 102H81.16ZM171.354 102V3.86H191.934V27.94L190.954 40.4C193.567 38.0667 196.601 35.92 200.054 33.96C203.507 31.9067 207.614 30.88 212.374 30.88C219.934 30.88 225.394 33.3533 228.754 38.3C232.207 43.2467 233.934 50.1067 233.934 58.88V102H213.354V61.54C213.354 56.5 212.654 53.0467 211.254 51.18C209.947 49.3133 207.801 48.38 204.814 48.38C202.201 48.38 199.961 48.9867 198.094 50.2C196.227 51.32 194.174 52.9533 191.934 55.1V102H171.354ZM308.902 103.68C302.928 103.68 296.955 102.607 290.982 100.46C285.102 98.22 279.828 94.9067 275.162 90.52L286.922 76.38C290.188 79.18 293.782 81.4667 297.702 83.24C301.715 85.0133 305.635 85.9 309.462 85.9C313.755 85.9 316.928 85.1067 318.982 83.52C321.128 81.9333 322.202 79.7867 322.202 77.08C322.202 75.68 321.875 74.4667 321.222 73.44C320.662 72.4133 319.775 71.5267 318.562 70.78C317.442 69.94 316.042 69.1933 314.362 68.54C312.775 67.7933 311.002 67 309.042 66.16L297.142 61.12C294.808 60.1867 292.522 58.9733 290.282 57.48C288.135 55.9867 286.175 54.26 284.402 52.3C282.722 50.2467 281.368 47.9133 280.342 45.3C279.315 42.5933 278.802 39.56 278.802 36.2C278.802 32.4667 279.595 28.9667 281.182 25.7C282.768 22.34 285.008 19.4467 287.902 17.02C290.795 14.5 294.202 12.54 298.122 11.14C302.135 9.73999 306.522 9.04 311.282 9.04C316.602 9.04 321.828 10.0667 326.962 12.12C332.188 14.1733 336.762 17.16 340.682 21.08L330.182 34.1C327.195 31.7667 324.208 29.9933 321.222 28.78C318.235 27.4733 314.922 26.82 311.282 26.82C307.735 26.82 304.888 27.5667 302.742 29.06C300.688 30.46 299.662 32.4667 299.662 35.08C299.662 36.48 299.988 37.6933 300.642 38.72C301.388 39.6533 302.368 40.54 303.582 41.38C304.888 42.1267 306.382 42.8733 308.062 43.62C309.742 44.2733 311.562 45.02 313.522 45.86L325.282 50.62C330.882 52.86 335.268 55.94 338.442 59.86C341.708 63.78 343.342 68.96 343.342 75.4C343.342 79.2267 342.548 82.8667 340.962 86.32C339.468 89.68 337.228 92.6667 334.242 95.28C331.348 97.8 327.755 99.8533 323.462 101.44C319.168 102.933 314.315 103.68 308.902 103.68ZM357.155 102V3.86H377.735V27.94L376.755 40.4C379.368 38.0667 382.401 35.92 385.855 33.96C389.308 31.9067 393.415 30.88 398.175 30.88C405.735 30.88 411.195 33.3533 414.555 38.3C418.008 43.2467 419.735 50.1067 419.735 58.88V102H399.155V61.54C399.155 56.5 398.455 53.0467 397.055 51.18C395.748 49.3133 393.601 48.38 390.615 48.38C388.001 48.38 385.761 48.9867 383.895 50.2C382.028 51.32 379.975 52.9533 377.735 55.1V102H357.155ZM437.135 102V32.56H457.715V102H437.135ZM447.355 22.34C443.902 22.34 441.055 21.36 438.815 19.4C436.575 17.3467 435.455 14.7333 435.455 11.56C435.455 8.38666 436.575 5.82 438.815 3.86C441.055 1.89999 443.902 0.919991 447.355 0.919991C450.902 0.919991 453.748 1.89999 455.895 3.86C458.135 5.82 459.255 8.38666 459.255 11.56C459.255 14.7333 458.135 17.3467 455.895 19.4C453.748 21.36 450.902 22.34 447.355 22.34ZM502.567 103.68C498.273 103.68 494.587 103.027 491.507 101.72C488.52 100.413 486.047 98.5933 484.087 96.26C482.22 93.9267 480.82 91.1267 479.887 87.86C479.047 84.5 478.627 80.8133 478.627 76.8V48.66H469.107V33.4L479.747 32.56L482.127 14.08H499.207V32.56H515.867V48.66H499.207V76.52C499.207 80.44 500 83.2867 501.587 85.06C503.267 86.74 505.46 87.58 508.167 87.58C509.287 87.58 510.407 87.44 511.527 87.16C512.74 86.88 513.813 86.5533 514.747 86.18L517.967 101.16C516.1 101.72 513.907 102.28 511.387 102.84C508.867 103.4 505.927 103.68 502.567 103.68Z" fill="#FBFF2F"/>
<path opacity="0.2" d="M6.64 158H5.64V159H6.64V158ZM6.64 105.68V104.68H5.64V105.68H6.64ZM15.92 105.68H16.92V104.68H15.92V105.68ZM15.92 126.72H14.92V127.72H15.92V126.72ZM37.12 126.72V127.72H38.12V126.72H37.12ZM37.12 105.68V104.68H36.12V105.68H37.12ZM46.4 105.68H47.4V104.68H46.4V105.68ZM46.4 158V159H47.4V158H46.4ZM37.12 158H36.12V159H37.12V158ZM37.12 134.8H38.12V133.8H37.12V134.8ZM15.92 134.8V133.8H14.92V134.8H15.92ZM15.92 158V159H16.92V158H15.92ZM7.64 158V105.68H5.64V158H7.64ZM6.64 106.68H15.92V104.68H6.64V106.68ZM14.92 105.68V126.72H16.92V105.68H14.92ZM15.92 127.72H37.12V125.72H15.92V127.72ZM38.12 126.72V105.68H36.12V126.72H38.12ZM37.12 106.68H46.4V104.68H37.12V106.68ZM45.4 105.68V158H47.4V105.68H45.4ZM46.4 157H37.12V159H46.4V157ZM38.12 158V134.8H36.12V158H38.12ZM37.12 133.8H15.92V135.8H37.12V133.8ZM14.92 134.8V158H16.92V134.8H14.92ZM15.92 157H6.64V159H15.92V157ZM68.0869 157.6L67.7082 158.526L67.7173 158.529L67.7265 158.533L68.0869 157.6ZM61.9269 153.52L62.634 152.813L61.9269 153.52ZM57.7669 147.12L56.8305 147.471L56.835 147.483L56.8398 147.495L57.7669 147.12ZM57.8469 129.76L56.9171 129.392L57.8469 129.76ZM61.8469 123.28L61.129 122.584L61.1235 122.59L61.118 122.595L61.8469 123.28ZM67.6869 119.2L68.0889 120.116L67.6869 119.2ZM81.4469 119.12L81.8552 118.207L81.4469 119.12ZM86.4869 122.96L85.7085 123.588L85.7145 123.595L85.7207 123.603L86.4869 122.96ZM89.6069 128.88L88.6497 129.169L89.6069 128.88ZM90.4869 138.96L89.4957 138.828L89.4913 138.861L89.4891 138.893L90.4869 138.96ZM90.2469 140.88V141.88H91.049L91.2231 141.097L90.2469 140.88ZM65.2869 140.88V139.88H64.1583L64.2941 141L65.2869 140.88ZM68.9669 149.04L68.2791 149.766L68.2889 149.775L68.299 149.784L68.9669 149.04ZM81.6069 151.12L81.9231 152.069L81.9332 152.065L81.9432 152.062L81.6069 151.12ZM86.0069 148.96L86.8862 148.484L86.3776 147.545L85.4741 148.114L86.0069 148.96ZM89.1269 154.72L89.6761 155.556L90.4436 155.051L90.0062 154.244L89.1269 154.72ZM82.8869 157.76L83.2162 158.704L82.8869 157.76ZM65.2069 134.64L64.2156 134.508L64.0647 135.64H65.2069V134.64ZM82.6469 134.64V135.64H83.6469V134.64H82.6469ZM80.6469 127.52L79.8381 128.108L79.8483 128.122L79.8589 128.136L80.6469 127.52ZM68.4869 127.36L69.1715 128.089H69.1716L68.4869 127.36ZM75.6869 157.96C73.0801 157.96 70.67 157.526 68.4473 156.667L67.7265 158.533C70.1971 159.487 72.8537 159.96 75.6869 159.96V157.96ZM68.4655 156.674C66.2394 155.764 64.2983 154.477 62.634 152.813L61.2198 154.227C63.0755 156.083 65.241 157.516 67.7082 158.526L68.4655 156.674ZM62.634 152.813C60.9768 151.156 59.6614 149.138 58.694 146.745L56.8398 147.495C57.899 150.115 59.357 152.364 61.2198 154.227L62.634 152.813ZM58.7032 146.769C57.7925 144.34 57.3269 141.556 57.3269 138.4H55.3269C55.3269 141.751 55.8213 144.78 56.8305 147.471L58.7032 146.769ZM57.3269 138.4C57.3269 135.306 57.8166 132.553 58.7767 130.128L56.9171 129.392C55.8505 132.087 55.3269 135.094 55.3269 138.4H57.3269ZM58.7767 130.128C59.75 127.669 61.02 125.621 62.5757 123.965L61.118 122.595C59.3671 124.459 57.9704 126.731 56.9171 129.392L58.7767 130.128ZM62.5648 123.976C64.1838 122.307 66.0239 121.022 68.0889 120.116L67.2849 118.284C64.9765 119.298 62.9233 120.733 61.129 122.584L62.5648 123.976ZM68.0889 120.116C70.1542 119.209 72.2577 118.76 74.4069 118.76V116.76C71.9694 116.76 69.5929 117.271 67.2849 118.284L68.0889 120.116ZM74.4069 118.76C76.9606 118.76 79.1635 119.194 81.0385 120.033L81.8552 118.207C79.6769 117.233 77.1865 116.76 74.4069 116.76V118.76ZM81.0385 120.033C82.9278 120.878 84.4788 122.063 85.7085 123.588L87.2653 122.332C85.8283 120.55 84.0193 119.175 81.8552 118.207L81.0385 120.033ZM85.7207 123.603C87.0113 125.141 87.9911 126.991 88.6497 129.169L90.5641 128.591C89.836 126.182 88.7358 124.085 87.2531 122.317L85.7207 123.603ZM88.6497 129.169C89.3111 131.357 89.6469 133.765 89.6469 136.4H91.6469C91.6469 133.595 91.2893 130.989 90.5641 128.591L88.6497 129.169ZM89.6469 136.4C89.6469 137.268 89.5958 138.077 89.4957 138.828L91.4781 139.092C91.5913 138.243 91.6469 137.346 91.6469 136.4H89.6469ZM89.4891 138.893C89.4373 139.67 89.3617 140.254 89.2707 140.663L91.2231 141.097C91.3454 140.546 91.4298 139.85 91.4847 139.027L89.4891 138.893ZM90.2469 139.88H65.2869V141.88H90.2469V139.88ZM64.2941 141C64.7411 144.688 66.0419 147.646 68.2791 149.766L69.6546 148.314C67.8385 146.594 66.686 144.112 66.2796 140.76L64.2941 141ZM68.299 149.784C70.589 151.839 73.4785 152.84 76.8869 152.84V150.84C73.8952 150.84 71.5047 149.974 69.6348 148.296L68.299 149.784ZM76.8869 152.84C78.6878 152.84 80.3693 152.587 81.9231 152.069L81.2906 150.171C79.9644 150.613 78.4993 150.84 76.8869 150.84V152.84ZM81.9432 152.062C83.5101 151.502 85.0424 150.749 86.5397 149.806L85.4741 148.114C84.0914 148.984 82.6903 149.671 81.2705 150.178L81.9432 152.062ZM85.1276 149.436L88.2476 155.196L90.0062 154.244L86.8862 148.484L85.1276 149.436ZM88.5777 153.884C86.7853 155.062 84.7801 156.04 82.5575 156.816L83.2162 158.704C85.5803 157.88 87.7352 156.831 89.6761 155.556L88.5777 153.884ZM82.5575 156.816C80.3734 157.578 78.085 157.96 75.6869 157.96V159.96C78.302 159.96 80.8136 159.542 83.2162 158.704L82.5575 156.816ZM65.2069 135.64H82.6469V133.64H65.2069V135.64ZM83.6469 134.64C83.6469 131.465 82.9515 128.846 81.4349 126.904L79.8589 128.136C81.0089 129.608 81.6469 131.735 81.6469 134.64H83.6469ZM81.4556 126.932C79.9405 124.849 77.5976 123.88 74.6469 123.88V125.88C77.1361 125.88 78.7933 126.671 79.8381 128.108L81.4556 126.932ZM74.6469 123.88C72.0377 123.88 69.7417 124.809 67.8022 126.631L69.1716 128.089C70.7521 126.604 72.5627 125.88 74.6469 125.88V123.88ZM67.8022 126.631C65.8253 128.488 64.6625 131.157 64.2156 134.508L66.1981 134.772C66.6046 131.723 67.6285 129.538 69.1715 128.089L67.8022 126.631ZM99.4338 158H98.4338V159H99.4338V158ZM99.4338 118.72V117.72H98.4338V118.72H99.4338ZM107.034 118.72L108.03 118.628L107.946 117.72H107.034V118.72ZM107.674 125.68L106.678 125.772L106.761 126.68H107.674V125.68ZM107.994 125.68V126.68H108.589L108.873 126.156L107.994 125.68ZM113.034 119.84L113.594 120.669L113.601 120.663L113.609 120.658L113.034 119.84ZM123.594 118.56L124.574 118.756L124.727 117.992L124.024 117.657L123.594 118.56ZM121.994 126.56L121.7 127.516L122.757 127.841L122.974 126.756L121.994 126.56ZM120.074 126.08L120.253 125.096L120.074 126.08ZM113.034 127.76L113.6 128.584L113.609 128.578L113.617 128.572L113.034 127.76ZM108.634 134L107.709 133.62L107.634 133.803V134H108.634ZM108.634 158V159H109.634V158H108.634ZM100.434 158V118.72H98.4338V158H100.434ZM99.4338 119.72H107.034V117.72H99.4338V119.72ZM106.038 118.812L106.678 125.772L108.67 125.588L108.03 118.628L106.038 118.812ZM107.674 126.68H107.994V124.68H107.674V126.68ZM108.873 126.156C110.2 123.707 111.78 121.894 113.594 120.669L112.474 119.011C110.341 120.453 108.561 122.533 107.114 125.204L108.873 126.156ZM113.609 120.658C115.441 119.37 117.271 118.76 119.114 118.76V116.76C116.797 116.76 114.573 117.536 112.459 119.022L113.609 120.658ZM119.114 118.76C120.9 118.76 122.229 119.018 123.164 119.463L124.024 117.657C122.719 117.036 121.061 116.76 119.114 116.76V118.76ZM122.613 118.364L121.013 126.364L122.974 126.756L124.574 118.756L122.613 118.364ZM122.288 125.604C121.564 125.382 120.885 125.211 120.253 125.096L119.895 127.064C120.435 127.162 121.036 127.312 121.7 127.516L122.288 125.604ZM120.253 125.096C119.588 124.975 118.804 124.92 117.914 124.92V126.92C118.73 126.92 119.386 126.971 119.895 127.064L120.253 125.096ZM117.914 124.92C116.094 124.92 114.267 125.642 112.45 126.948L113.617 128.572C115.214 127.425 116.64 126.92 117.914 126.92V124.92ZM112.467 126.936C110.534 128.265 108.971 130.546 107.709 133.62L109.559 134.38C110.75 131.48 112.12 129.602 113.6 128.584L112.467 126.936ZM107.634 134V158H109.634V134H107.634ZM108.634 157H99.4338V159H108.634V157ZM137.696 157.6L137.318 158.526L137.327 158.529L137.336 158.533L137.696 157.6ZM131.536 153.52L132.243 152.813L131.536 153.52ZM127.376 147.12L126.44 147.471L126.444 147.483L126.449 147.495L127.376 147.12ZM127.456 129.76L126.526 129.392L127.456 129.76ZM131.456 123.28L130.738 122.584L130.733 122.59L130.727 122.595L131.456 123.28ZM137.296 119.2L137.698 120.116L137.296 119.2ZM151.056 119.12L151.465 118.207L151.056 119.12ZM156.096 122.96L155.318 123.588L155.324 123.595L155.33 123.603L156.096 122.96ZM159.216 128.88L158.259 129.169L159.216 128.88ZM160.096 138.96L159.105 138.828L159.101 138.861L159.098 138.893L160.096 138.96ZM159.856 140.88V141.88H160.658L160.832 141.097L159.856 140.88ZM134.896 140.88V139.88H133.768L133.904 141L134.896 140.88ZM138.576 149.04L137.889 149.766L137.898 149.775L137.908 149.784L138.576 149.04ZM151.216 151.12L151.532 152.069L151.543 152.065L151.553 152.062L151.216 151.12ZM155.616 148.96L156.496 148.484L155.987 147.545L155.083 148.114L155.616 148.96ZM158.736 154.72L159.285 155.556L160.053 155.051L159.616 154.244L158.736 154.72ZM152.496 157.76L152.826 158.704L152.496 157.76ZM134.816 134.64L133.825 134.508L133.674 135.64H134.816V134.64ZM152.256 134.64V135.64H153.256V134.64H152.256ZM150.256 127.52L149.448 128.108L149.458 128.122L149.468 128.136L150.256 127.52ZM138.096 127.36L138.781 128.089L138.096 127.36ZM145.296 157.96C142.689 157.96 140.279 157.526 138.057 156.667L137.336 158.533C139.807 159.487 142.463 159.96 145.296 159.96V157.96ZM138.075 156.674C135.849 155.764 133.908 154.477 132.243 152.813L130.829 154.227C132.685 156.083 134.85 157.516 137.318 158.526L138.075 156.674ZM132.243 152.813C130.586 151.156 129.271 149.138 128.303 146.745L126.449 147.495C127.508 150.115 128.966 152.364 130.829 154.227L132.243 152.813ZM128.313 146.769C127.402 144.34 126.936 141.556 126.936 138.4H124.936C124.936 141.751 125.431 144.78 126.44 147.471L128.313 146.769ZM126.936 138.4C126.936 135.306 127.426 132.553 128.386 130.128L126.526 129.392C125.46 132.087 124.936 135.094 124.936 138.4H126.936ZM128.386 130.128C129.359 127.669 130.629 125.621 132.185 123.965L130.727 122.595C128.976 124.459 127.58 126.731 126.526 129.392L128.386 130.128ZM132.174 123.976C133.793 122.307 135.633 121.022 137.698 120.116L136.894 118.284C134.586 119.298 132.533 120.733 130.738 122.584L132.174 123.976ZM137.698 120.116C139.764 119.209 141.867 118.76 144.016 118.76V116.76C141.579 116.76 139.202 117.271 136.894 118.284L137.698 120.116ZM144.016 118.76C146.57 118.76 148.773 119.194 150.648 120.033L151.465 118.207C149.286 117.233 146.796 116.76 144.016 116.76V118.76ZM150.648 120.033C152.537 120.878 154.088 122.063 155.318 123.588L156.875 122.332C155.438 120.55 153.629 119.175 151.465 118.207L150.648 120.033ZM155.33 123.603C156.621 125.141 157.601 126.991 158.259 129.169L160.173 128.591C159.445 126.182 158.345 124.085 156.862 122.317L155.33 123.603ZM158.259 129.169C158.92 131.357 159.256 133.765 159.256 136.4H161.256C161.256 133.595 160.899 130.989 160.173 128.591L158.259 129.169ZM159.256 136.4C159.256 137.268 159.205 138.077 159.105 138.828L161.087 139.092C161.201 138.243 161.256 137.346 161.256 136.4H159.256ZM159.098 138.893C159.047 139.67 158.971 140.254 158.88 140.663L160.832 141.097C160.955 140.546 161.039 139.85 161.094 139.027L159.098 138.893ZM159.856 139.88H134.896V141.88H159.856V139.88ZM133.904 141C134.35 144.688 135.651 147.646 137.889 149.766L139.264 148.314C137.448 146.594 136.295 144.112 135.889 140.76L133.904 141ZM137.908 149.784C140.198 151.839 143.088 152.84 146.496 152.84V150.84C143.505 150.84 141.114 149.974 139.244 148.296L137.908 149.784ZM146.496 152.84C148.297 152.84 149.979 152.587 151.532 152.069L150.9 150.171C149.574 150.613 148.109 150.84 146.496 150.84V152.84ZM151.553 152.062C153.12 151.502 154.652 150.749 156.149 149.806L155.083 148.114C153.701 148.984 152.3 149.671 150.88 150.178L151.553 152.062ZM154.737 149.436L157.857 155.196L159.616 154.244L156.496 148.484L154.737 149.436ZM158.187 153.884C156.395 155.062 154.389 156.04 152.167 156.816L152.826 158.704C155.19 157.88 157.345 156.831 159.285 155.556L158.187 153.884ZM152.167 156.816C149.983 157.578 147.694 157.96 145.296 157.96V159.96C147.911 159.96 150.423 159.542 152.826 158.704L152.167 156.816ZM134.816 135.64H152.256V133.64H134.816V135.64ZM153.256 134.64C153.256 131.465 152.561 128.846 151.044 126.904L149.468 128.136C150.618 129.608 151.256 131.735 151.256 134.64H153.256ZM151.065 126.932C149.55 124.849 147.207 123.88 144.256 123.88V125.88C146.745 125.88 148.403 126.671 149.448 128.108L151.065 126.932ZM144.256 123.88C141.647 123.88 139.351 124.809 137.412 126.631L138.781 128.089C140.361 126.604 142.172 125.88 144.256 125.88V123.88ZM137.412 126.631C135.435 128.488 134.272 131.157 133.825 134.508L135.807 134.772C136.214 131.723 137.238 129.538 138.781 128.089L137.412 126.631ZM191.059 158L190.078 158.195L190.238 159H191.059V158ZM180.659 105.68V104.68H179.44L179.678 105.875L180.659 105.68ZM190.179 105.68L191.164 105.51L191.021 104.68H190.179V105.68ZM194.739 132.08L195.728 131.931L195.726 131.92L195.724 131.91L194.739 132.08ZM196.019 140.48L195.03 140.632L196.019 140.48ZM197.299 148.8L196.31 148.952L196.441 149.8H197.299V148.8ZM197.619 148.8V149.8H198.429L198.597 149.007L197.619 148.8ZM199.299 140.48L198.32 140.277L198.318 140.284L198.317 140.291L199.299 140.48ZM201.059 132.08L200.087 131.844L200.083 131.859L200.08 131.873L201.059 132.08ZM207.459 105.68V104.68H206.672L206.487 105.444L207.459 105.68ZM215.539 105.68L216.511 105.444L216.325 104.68H215.539V105.68ZM221.939 132.08L222.916 131.869L222.914 131.857L222.911 131.844L221.939 132.08ZM223.699 140.4L222.72 140.603L222.72 140.607L223.699 140.4ZM225.459 148.8L224.48 149.003L224.645 149.8H225.459V148.8ZM225.779 148.8V149.8H226.639L226.768 148.949L225.779 148.8ZM226.979 140.4L225.99 140.248L225.989 140.257L225.988 140.267L226.979 140.4ZM228.259 132.08L227.273 131.91L227.272 131.919L227.27 131.928L228.259 132.08ZM232.819 105.68V104.68H231.977L231.833 105.51L232.819 105.68ZM241.699 105.68L242.681 105.868L242.908 104.68H241.699V105.68ZM231.699 158V159H232.526L232.681 158.188L231.699 158ZM220.179 158L219.205 158.229L219.387 159H220.179V158ZM213.699 130.48L212.72 130.686L212.723 130.698L212.725 130.709L213.699 130.48ZM212.419 124.48L211.435 124.661L211.438 124.676L211.441 124.691L212.419 124.48ZM211.379 118.4L212.367 118.244L212.233 117.4H211.379V118.4ZM211.059 118.4V117.4H210.226L210.075 118.219L211.059 118.4ZM209.859 124.48L208.88 124.274L208.878 124.284L208.876 124.294L209.859 124.48ZM208.659 130.48L209.633 130.704L209.635 130.695L209.637 130.686L208.659 130.48ZM202.339 158V159H203.135L203.313 158.224L202.339 158ZM192.04 157.805L181.64 105.485L179.678 105.875L190.078 158.195L192.04 157.805ZM180.659 106.68H190.179V104.68H180.659V106.68ZM189.193 105.85L193.753 132.25L195.724 131.91L191.164 105.51L189.193 105.85ZM193.75 132.229C194.177 135.057 194.604 137.858 195.03 140.632L197.007 140.328C196.581 137.556 196.154 134.756 195.728 131.931L193.75 132.229ZM195.03 140.632C195.457 143.405 195.884 146.179 196.31 148.952L198.287 148.648C197.86 145.875 197.434 143.101 197.007 140.328L195.03 140.632ZM197.299 149.8H197.619V147.8H197.299V149.8ZM198.597 149.007C199.185 146.228 199.746 143.448 200.281 140.669L198.317 140.291C197.785 143.058 197.226 145.826 196.64 148.593L198.597 149.007ZM200.278 140.683C200.864 137.858 201.451 135.059 202.037 132.287L200.08 131.873C199.493 134.648 198.907 137.449 198.32 140.277L200.278 140.683ZM202.031 132.316L208.431 105.916L206.487 105.444L200.087 131.844L202.031 132.316ZM207.459 106.68H215.539V104.68H207.459V106.68ZM214.567 105.916L220.967 132.316L222.911 131.844L216.511 105.444L214.567 105.916ZM220.961 132.291C221.547 135.008 222.133 137.779 222.72 140.603L224.678 140.197C224.091 137.368 223.504 134.592 222.916 131.869L220.961 132.291ZM222.72 140.607C223.307 143.379 223.893 146.178 224.48 149.003L226.438 148.597C225.851 145.769 225.264 142.968 224.677 140.193L222.72 140.607ZM225.459 149.8H225.779V147.8H225.459V149.8ZM226.768 148.949C227.195 146.117 227.596 143.312 227.97 140.533L225.988 140.267C225.615 143.035 225.216 145.829 224.79 148.651L226.768 148.949ZM227.967 140.552C228.394 137.779 228.82 135.005 229.247 132.232L227.27 131.928C226.844 134.701 226.417 137.475 225.99 140.248L227.967 140.552ZM229.244 132.25L233.804 105.85L231.833 105.51L227.273 131.91L229.244 132.25ZM232.819 106.68H241.699V104.68H232.819V106.68ZM240.717 105.492L230.717 157.812L232.681 158.188L242.681 105.868L240.717 105.492ZM231.699 157H220.179V159H231.699V157ZM221.152 157.771L214.672 130.251L212.725 130.709L219.205 158.229L221.152 157.771ZM214.677 130.274C214.25 128.246 213.823 126.244 213.396 124.269L211.441 124.691C211.868 126.663 212.294 128.661 212.72 130.686L214.677 130.274ZM213.402 124.299C213.03 122.281 212.685 120.262 212.367 118.244L210.391 118.556C210.712 120.591 211.06 122.626 211.435 124.661L213.402 124.299ZM211.379 117.4H211.059V119.4H211.379V117.4ZM210.075 118.219C209.704 120.237 209.305 122.256 208.88 124.274L210.837 124.686C211.266 122.651 211.667 120.616 212.042 118.581L210.075 118.219ZM208.876 124.294C208.504 126.261 208.105 128.254 207.68 130.274L209.637 130.686C210.065 128.653 210.467 126.646 210.841 124.666L208.876 124.294ZM207.684 130.256L201.364 157.776L203.313 158.224L209.633 130.704L207.684 130.256ZM202.339 157H191.059V159H202.339V157ZM258.243 157.6L257.865 158.526L257.874 158.529L257.883 158.533L258.243 157.6ZM252.083 153.52L252.79 152.813L252.083 153.52ZM247.923 147.12L246.987 147.471L246.991 147.483L246.996 147.495L247.923 147.12ZM248.003 129.76L247.073 129.392L248.003 129.76ZM252.003 123.28L251.285 122.584L251.28 122.59L251.274 122.595L252.003 123.28ZM257.843 119.2L258.245 120.116L257.843 119.2ZM271.603 119.12L272.012 118.207L271.603 119.12ZM276.643 122.96L275.865 123.588L275.871 123.595L275.877 123.603L276.643 122.96ZM279.763 128.88L278.806 129.169L279.763 128.88ZM280.643 138.96L279.652 138.828L279.648 138.861L279.645 138.893L280.643 138.96ZM280.403 140.88V141.88H281.205L281.379 141.097L280.403 140.88ZM255.443 140.88V139.88H254.315L254.45 141L255.443 140.88ZM259.123 149.04L258.435 149.766L258.445 149.775L258.455 149.784L259.123 149.04ZM271.763 151.12L272.079 152.069L272.089 152.065L272.099 152.062L271.763 151.12ZM276.163 148.96L277.042 148.484L276.534 147.545L275.63 148.114L276.163 148.96ZM279.283 154.72L279.832 155.556L280.6 155.051L280.162 154.244L279.283 154.72ZM273.043 157.76L273.372 158.704L273.043 157.76ZM255.363 134.64L254.372 134.508L254.221 135.64H255.363V134.64ZM272.803 134.64V135.64H273.803V134.64H272.803ZM270.803 127.52L269.994 128.108L270.005 128.122L270.015 128.136L270.803 127.52ZM258.643 127.36L259.328 128.089L258.643 127.36ZM265.843 157.96C263.236 157.96 260.826 157.526 258.604 156.667L257.883 158.533C260.353 159.487 263.01 159.96 265.843 159.96V157.96ZM258.622 156.674C256.396 155.764 254.455 154.477 252.79 152.813L251.376 154.227C253.232 156.083 255.397 157.516 257.865 158.526L258.622 156.674ZM252.79 152.813C251.133 151.156 249.818 149.138 248.85 146.745L246.996 147.495C248.055 150.115 249.513 152.364 251.376 154.227L252.79 152.813ZM248.859 146.769C247.949 144.34 247.483 141.556 247.483 138.4H245.483C245.483 141.751 245.978 144.78 246.987 147.471L248.859 146.769ZM247.483 138.4C247.483 135.306 247.973 132.553 248.933 130.128L247.073 129.392C246.007 132.087 245.483 135.094 245.483 138.4H247.483ZM248.933 130.128C249.906 127.669 251.176 125.621 252.732 123.965L251.274 122.595C249.523 124.459 248.127 126.731 247.073 129.392L248.933 130.128ZM252.721 123.976C254.34 122.307 256.18 121.022 258.245 120.116L257.441 118.284C255.133 119.298 253.08 120.733 251.285 122.584L252.721 123.976ZM258.245 120.116C260.31 119.209 262.414 118.76 264.563 118.76V116.76C262.126 116.76 259.749 117.271 257.441 118.284L258.245 120.116ZM264.563 118.76C267.117 118.76 269.32 119.194 271.195 120.033L272.012 118.207C269.833 117.233 267.343 116.76 264.563 116.76V118.76ZM271.195 120.033C273.084 120.878 274.635 122.063 275.865 123.588L277.422 122.332C275.985 120.55 274.176 119.175 272.012 118.207L271.195 120.033ZM275.877 123.603C277.168 125.141 278.147 126.991 278.806 129.169L280.72 128.591C279.992 126.182 278.892 124.085 277.409 122.317L275.877 123.603ZM278.806 129.169C279.467 131.357 279.803 133.765 279.803 136.4H281.803C281.803 133.595 281.446 130.989 280.72 128.591L278.806 129.169ZM279.803 136.4C279.803 137.268 279.752 138.077 279.652 138.828L281.634 139.092C281.748 138.243 281.803 137.346 281.803 136.4H279.803ZM279.645 138.893C279.594 139.67 279.518 140.254 279.427 140.663L281.379 141.097C281.502 140.546 281.586 139.85 281.641 139.027L279.645 138.893ZM280.403 139.88H255.443V141.88H280.403V139.88ZM254.45 141C254.897 144.688 256.198 147.646 258.435 149.766L259.811 148.314C257.995 146.594 256.842 144.112 256.436 140.76L254.45 141ZM258.455 149.784C260.745 151.839 263.635 152.84 267.043 152.84V150.84C264.051 150.84 261.661 149.974 259.791 148.296L258.455 149.784ZM267.043 152.84C268.844 152.84 270.526 152.587 272.079 152.069L271.447 150.171C270.121 150.613 268.656 150.84 267.043 150.84V152.84ZM272.099 152.062C273.666 151.502 275.199 150.749 276.696 149.806L275.63 148.114C274.248 148.984 272.847 149.671 271.427 150.178L272.099 152.062ZM275.284 149.436L278.404 155.196L280.162 154.244L277.042 148.484L275.284 149.436ZM278.734 153.884C276.941 155.062 274.936 156.04 272.714 156.816L273.372 158.704C275.737 157.88 277.891 156.831 279.832 155.556L278.734 153.884ZM272.714 156.816C270.53 157.578 268.241 157.96 265.843 157.96V159.96C268.458 159.96 270.97 159.542 273.372 158.704L272.714 156.816ZM255.363 135.64H272.803V133.64H255.363V135.64ZM273.803 134.64C273.803 131.465 273.108 128.846 271.591 126.904L270.015 128.136C271.165 129.608 271.803 131.735 271.803 134.64H273.803ZM271.612 126.932C270.097 124.849 267.754 123.88 264.803 123.88V125.88C267.292 125.88 268.949 126.671 269.994 128.108L271.612 126.932ZM264.803 123.88C262.194 123.88 259.898 124.809 257.958 126.631L259.328 128.089C260.908 126.604 262.719 125.88 264.803 125.88V123.88ZM257.958 126.631C255.982 128.488 254.819 131.157 254.372 134.508L256.354 134.772C256.761 131.723 257.785 129.538 259.328 128.089L257.958 126.631ZM318.486 157.2L318.12 158.131L318.126 158.133L318.486 157.2ZM310.646 152L309.922 152.69L309.93 152.699L310.646 152ZM305.526 143.52L304.586 143.863L305.526 143.52ZM305.606 120.56L306.54 120.916L306.542 120.911L305.606 120.56ZM310.806 111.92L310.082 111.229L310.074 111.238L310.806 111.92ZM318.646 106.56L318.271 105.633L318.266 105.635L318.646 106.56ZM337.846 106.8L337.369 107.679L337.38 107.685L337.391 107.691L337.846 106.8ZM344.246 111.36L345.016 111.997L345.587 111.307L344.964 110.664L344.246 111.36ZM339.286 117.36L338.593 118.081L339.37 118.827L340.056 117.997L339.286 117.36ZM334.806 114.16L334.313 115.03L334.33 115.04L334.347 115.049L334.806 114.16ZM322.326 114.16L322.741 115.07L322.753 115.064L322.326 114.16ZM317.446 117.92L316.679 117.277L316.677 117.28L317.446 117.92ZM317.206 145.84L316.418 146.456L316.423 146.462L316.428 146.469L317.206 145.84ZM333.446 150.32L333.715 151.283L333.733 151.278L333.75 151.272L333.446 150.32ZM336.726 148.56L337.384 149.313L337.726 149.014V148.56H336.726ZM336.726 137.28H337.726V136.28H336.726V137.28ZM326.806 137.28H325.806V138.28H326.806V137.28ZM326.806 129.68V128.68H325.806V129.68H326.806ZM345.046 129.68H346.046V128.68H345.046V129.68ZM345.046 152.72L345.753 153.427L346.046 153.134V152.72H345.046ZM338.006 157.2L338.383 158.126L338.391 158.123L338.006 157.2ZM328.326 157.96C324.919 157.96 321.762 157.393 318.846 156.267L318.126 158.133C321.289 159.354 324.692 159.96 328.326 159.96V157.96ZM318.851 156.269C315.996 155.148 313.502 153.493 311.361 151.301L309.93 152.699C312.269 155.093 315.002 156.906 318.12 158.131L318.851 156.269ZM311.369 151.31C309.289 149.128 307.651 146.424 306.465 143.177L304.586 143.863C305.854 147.336 307.629 150.285 309.922 152.69L311.369 151.31ZM306.465 143.177C305.286 139.947 304.686 136.227 304.686 132H302.686C302.686 136.413 303.312 140.373 304.586 143.863L306.465 143.177ZM304.686 132C304.686 127.833 305.311 124.143 306.54 120.916L304.671 120.204C303.341 123.697 302.686 127.634 302.686 132H304.686ZM306.542 120.911C307.782 117.604 309.451 114.84 311.537 112.602L310.074 111.238C307.787 113.693 305.989 116.69 304.669 120.209L306.542 120.911ZM311.529 112.61C313.673 110.365 316.169 108.658 319.026 107.485L318.266 105.635C315.149 106.915 312.419 108.782 310.082 111.23L311.529 112.61ZM319.02 107.487C321.934 106.311 325.06 105.72 328.406 105.72V103.72C324.818 103.72 321.437 104.355 318.271 105.633L319.02 107.487ZM328.406 105.72C332.018 105.72 334.991 106.391 337.369 107.679L338.322 105.921C335.58 104.436 332.26 103.72 328.406 103.72V105.72ZM337.391 107.691C339.929 108.985 341.966 110.444 343.527 112.056L344.964 110.664C343.218 108.862 340.989 107.281 338.3 105.909L337.391 107.691ZM343.475 110.723L338.515 116.723L340.056 117.997L345.016 111.997L343.475 110.723ZM339.978 116.639C338.575 115.291 337.003 114.169 335.264 113.271L334.347 115.049C335.915 115.858 337.33 116.869 338.593 118.081L339.978 116.639ZM335.299 113.29C333.506 112.274 331.296 111.8 328.726 111.8V113.8C331.062 113.8 332.905 114.232 334.313 115.03L335.299 113.29ZM328.726 111.8C326.247 111.8 323.966 112.28 321.899 113.256L322.753 115.064C324.526 114.227 326.511 113.8 328.726 113.8V111.8ZM321.91 113.251C319.901 114.169 318.157 115.516 316.679 117.277L318.212 118.563C319.508 117.017 321.017 115.858 322.741 115.069L321.91 113.251ZM316.677 117.28C315.248 118.996 314.152 121.089 313.373 123.537L315.279 124.143C315.993 121.898 316.977 120.044 318.214 118.56L316.677 117.28ZM313.373 123.537C312.59 125.998 312.206 128.743 312.206 131.76H314.206C314.206 128.91 314.568 126.375 315.279 124.143L313.373 123.537ZM312.206 131.76C312.206 137.873 313.57 142.81 316.418 146.456L317.994 145.224C315.508 142.043 314.206 137.594 314.206 131.76H312.206ZM316.428 146.469C319.38 150.116 323.698 151.88 329.206 151.88V149.88C324.154 149.88 320.471 148.284 317.983 145.211L316.428 146.469ZM329.206 151.88C330.783 151.88 332.288 151.683 333.715 151.283L333.176 149.357C331.937 149.704 330.615 149.88 329.206 149.88V151.88ZM333.75 151.272C335.184 150.814 336.407 150.168 337.384 149.313L336.067 147.807C335.338 148.445 334.374 148.973 333.141 149.368L333.75 151.272ZM337.726 148.56V137.28H335.726V148.56H337.726ZM336.726 136.28H326.806V138.28H336.726V136.28ZM327.806 137.28V129.68H325.806V137.28H327.806ZM326.806 130.68H345.046V128.68H326.806V130.68ZM344.046 129.68V152.72H346.046V129.68H344.046ZM344.339 152.013C342.692 153.659 340.465 155.088 337.62 156.277L338.391 158.123C341.413 156.859 343.879 155.301 345.753 153.427L344.339 152.013ZM337.628 156.274C334.885 157.392 331.789 157.96 328.326 157.96V159.96C332.009 159.96 335.367 159.355 338.383 158.126L337.628 156.274ZM364.88 157.6L364.505 158.527L364.88 157.6ZM358.88 153.6L358.162 154.296L358.167 154.302L358.173 154.307L358.88 153.6ZM354.8 147.12L353.87 147.488L354.8 147.12ZM354.8 129.68L355.73 130.048L354.8 129.68ZM358.88 123.2L358.173 122.493L358.167 122.498L358.162 122.504L358.88 123.2ZM364.88 119.2L365.255 120.127L365.265 120.123L365.274 120.119L364.88 119.2ZM378.96 119.2L378.566 120.119L378.579 120.125L378.592 120.13L378.96 119.2ZM384.96 123.2L384.242 123.896L384.96 123.2ZM389.04 129.68L388.11 130.048L388.113 130.056L388.117 130.065L389.04 129.68ZM389.04 147.12L388.117 146.735L388.113 146.744L388.11 146.752L389.04 147.12ZM384.96 153.6L384.242 152.904L384.96 153.6ZM378.96 157.6L378.592 156.67L378.585 156.673L378.96 157.6ZM378.72 147.92L379.538 148.496L379.544 148.487L378.72 147.92ZM378.72 128.88L377.896 129.447L377.903 129.456L378.72 128.88ZM365.12 128.88L364.296 128.313L364.294 128.317L365.12 128.88ZM365.12 147.92L364.288 148.475L364.295 148.485L364.303 148.496L365.12 147.92ZM371.92 157.96C369.593 157.96 367.374 157.531 365.255 156.673L364.505 158.527C366.866 159.483 369.34 159.96 371.92 159.96V157.96ZM365.255 156.673C363.143 155.818 361.255 154.561 359.587 152.893L358.173 154.307C360.025 156.159 362.137 157.568 364.505 158.527L365.255 156.673ZM359.598 152.904C357.993 151.249 356.701 149.205 355.73 146.752L353.87 147.488C354.926 150.155 356.353 152.431 358.162 154.296L359.598 152.904ZM355.73 146.752C354.77 144.328 354.28 141.55 354.28 138.4H352.28C352.28 141.757 352.803 144.792 353.87 147.488L355.73 146.752ZM354.28 138.4C354.28 135.25 354.77 132.472 355.73 130.048L353.87 129.312C352.803 132.008 352.28 135.043 352.28 138.4H354.28ZM355.73 130.048C356.701 127.595 357.993 125.551 359.598 123.896L358.162 122.504C356.353 124.369 354.926 126.645 353.87 129.312L355.73 130.048ZM359.587 123.907C361.255 122.239 363.143 120.982 365.255 120.127L364.505 118.273C362.137 119.232 360.025 120.641 358.173 122.493L359.587 123.907ZM365.274 120.119C367.389 119.213 369.601 118.76 371.92 118.76V116.76C369.332 116.76 366.851 117.267 364.486 118.281L365.274 120.119ZM371.92 118.76C374.239 118.76 376.451 119.213 378.566 120.119L379.354 118.281C376.989 117.267 374.508 116.76 371.92 116.76V118.76ZM378.592 120.13C380.754 120.985 382.635 122.239 384.242 123.896L385.678 122.504C383.872 120.641 381.752 119.229 379.328 118.27L378.592 120.13ZM384.242 123.896C385.847 125.551 387.139 127.595 388.11 130.048L389.97 129.312C388.914 126.645 387.487 124.369 385.678 122.504L384.242 123.896ZM388.117 130.065C389.125 132.484 389.64 135.256 389.64 138.4H391.64C391.64 135.037 391.089 131.996 389.963 129.295L388.117 130.065ZM389.64 138.4C389.64 141.544 389.125 144.316 388.117 146.735L389.963 147.505C391.089 144.804 391.64 141.763 391.64 138.4H389.64ZM388.11 146.752C387.139 149.205 385.847 151.249 384.242 152.904L385.678 154.296C387.487 152.431 388.914 150.155 389.97 147.488L388.11 146.752ZM384.242 152.904C382.635 154.561 380.754 155.815 378.592 156.67L379.328 158.53C381.752 157.571 383.872 156.159 385.678 154.296L384.242 152.904ZM378.585 156.673C376.466 157.531 374.247 157.96 371.92 157.96V159.96C374.5 159.96 376.974 159.483 379.335 158.527L378.585 156.673ZM371.92 152.44C375.124 152.44 377.696 151.11 379.537 148.496L377.903 147.344C376.437 149.424 374.476 150.44 371.92 150.44V152.44ZM379.544 148.487C381.346 145.871 382.2 142.479 382.2 138.4H380.2C380.2 142.214 379.401 145.169 377.896 147.353L379.544 148.487ZM382.2 138.4C382.2 134.273 381.348 130.874 379.537 128.304L377.903 129.456C379.399 131.579 380.2 134.527 380.2 138.4H382.2ZM379.544 128.313C377.706 125.646 375.134 124.28 371.92 124.28V126.28C374.466 126.28 376.427 127.314 377.896 129.447L379.544 128.313ZM371.92 124.28C368.706 124.28 366.134 125.646 364.296 128.313L365.944 129.447C367.413 127.314 369.374 126.28 371.92 126.28V124.28ZM364.294 128.317C362.543 130.884 361.72 134.278 361.72 138.4H363.72C363.72 134.522 364.497 131.569 365.946 129.443L364.294 128.317ZM361.72 138.4C361.72 142.473 362.545 145.86 364.288 148.475L365.952 147.365C364.495 145.18 363.72 142.22 363.72 138.4H361.72ZM364.303 148.496C366.144 151.11 368.716 152.44 371.92 152.44V150.44C369.364 150.44 367.403 149.424 365.937 147.344L364.303 148.496ZM427.282 130.16L426.326 129.866L426.323 129.875L426.321 129.884L427.282 130.16ZM425.442 136.56L424.481 136.284L424.114 137.56H425.442V136.56ZM438.802 136.56V137.56H440.13L439.763 136.284L438.802 136.56ZM436.962 130.16L437.923 129.884L437.92 129.875L437.918 129.866L436.962 130.16ZM434.482 121.6L433.513 121.847L433.515 121.855L433.517 121.863L434.482 121.6ZM432.242 112.88L433.21 112.629L433.016 111.88H432.242V112.88ZM431.922 112.88V111.88H431.145L430.953 112.633L431.922 112.88ZM429.682 121.68L430.65 121.931L430.651 121.927L429.682 121.68ZM409.762 158L408.811 157.69L408.384 159H409.762V158ZM426.802 105.68V104.68H426.076L425.851 105.37L426.802 105.68ZM437.682 105.68L438.633 105.37L438.408 104.68H437.682V105.68ZM454.722 158V159H456.099L455.673 157.69L454.722 158ZM444.962 158L444.001 158.277L444.209 159H444.962V158ZM440.882 143.84L441.843 143.563L441.634 142.84H440.882V143.84ZM423.282 143.84V142.84H422.529L422.321 143.563L423.282 143.84ZM419.202 158V159H419.954L420.163 158.277L419.202 158ZM426.321 129.884L424.481 136.284L426.403 136.836L428.243 130.436L426.321 129.884ZM425.442 137.56H438.802V135.56H425.442V137.56ZM439.763 136.284L437.923 129.884L436.001 130.436L437.841 136.836L439.763 136.284ZM437.918 129.866C437.068 127.103 436.244 124.26 435.447 121.337L433.517 121.863C434.32 124.806 435.149 127.67 436.006 130.454L437.918 129.866ZM435.451 121.353C434.704 118.419 433.957 115.51 433.21 112.629L431.274 113.131C432.02 116.01 432.766 118.915 433.513 121.847L435.451 121.353ZM432.242 111.88H431.922V113.88H432.242V111.88ZM430.953 112.633C430.206 115.567 429.459 118.5 428.713 121.433L430.651 121.927C431.398 118.993 432.144 116.06 432.891 113.127L430.953 112.633ZM428.714 121.429C427.971 124.295 427.175 127.107 426.326 129.866L428.238 130.454C429.095 127.666 429.9 124.825 430.65 121.931L428.714 121.429ZM410.713 158.31L427.753 105.99L425.851 105.37L408.811 157.69L410.713 158.31ZM426.802 106.68H437.682V104.68H426.802V106.68ZM436.731 105.99L453.771 158.31L455.673 157.69L438.633 105.37L436.731 105.99ZM454.722 157H444.962V159H454.722V157ZM445.923 157.723L441.843 143.563L439.921 144.117L444.001 158.277L445.923 157.723ZM440.882 142.84H423.282V144.84H440.882V142.84ZM422.321 143.563L418.241 157.723L420.163 158.277L424.243 144.117L422.321 143.563ZM419.202 157H409.762V159H419.202V157ZM467.491 174.72L467.28 175.697L467.285 175.699L467.491 174.72ZM462.371 172.8L462.881 171.94V171.94L462.371 172.8ZM458.931 169.6L458.083 170.13L458.091 170.142L458.099 170.155L458.931 169.6ZM459.171 160.48L458.349 159.911L458.344 159.918L458.339 159.925L459.171 160.48ZM463.331 156.72L463.857 157.571L464.331 157.278V156.72H463.331ZM463.331 156.4H464.331V155.849L463.865 155.555L463.331 156.4ZM460.771 153.84L459.914 154.354L459.923 154.37L459.933 154.385L460.771 153.84ZM461.091 145.68L460.275 145.102L460.27 145.109L461.091 145.68ZM464.131 142.56L464.712 143.374L465.131 143.075V142.56H464.131ZM464.131 142.24H465.131V141.744L464.736 141.444L464.131 142.24ZM460.531 138.08L459.658 138.568L459.667 138.583L459.676 138.598L460.531 138.08ZM460.291 125.84L461.191 126.276L460.291 125.84ZM463.651 121.44L464.297 122.203L464.3 122.201L463.651 121.44ZM468.611 118.72L468.911 119.674L468.923 119.67L468.936 119.666L468.611 118.72ZM477.571 118.08L477.354 119.056L477.385 119.063L477.415 119.068L477.571 118.08ZM480.291 118.72L479.975 119.669L480.129 119.72H480.291V118.72ZM494.371 118.72H495.371V117.72H494.371V118.72ZM494.371 125.52V126.52H495.371V125.52H494.371ZM487.171 125.52V124.52H484.997L486.412 126.171L487.171 125.52ZM488.771 128.4L487.831 128.742L487.834 128.749L487.837 128.756L488.771 128.4ZM488.211 137.92L487.311 137.484L487.305 137.496L487.3 137.508L488.211 137.92ZM485.091 142.08L485.734 142.846L485.091 142.08ZM480.371 144.64L480.063 143.689H480.063L480.371 144.64ZM471.891 145.28L472.065 144.295V144.295L471.891 145.28ZM469.171 144.48L469.552 143.555L468.967 143.314L468.499 143.74L469.171 144.48ZM467.731 146.08L466.912 145.507L466.892 145.535L466.874 145.566L467.731 146.08ZM468.611 150.88L468.035 151.697L468.045 151.705L468.057 151.712L468.611 150.88ZM491.331 154.16L490.79 155.001L490.8 155.008L490.811 155.014L491.331 154.16ZM493.491 166.96L492.631 166.449L492.625 166.46L492.62 166.47L493.491 166.96ZM489.331 171.36L489.892 172.188L489.331 171.36ZM482.691 174.24L482.435 173.273L482.423 173.277L482.411 173.28L482.691 174.24ZM479.331 137.76L480.038 138.467L480.045 138.46L480.052 138.453L479.331 137.76ZM479.331 126.16L478.596 126.838L478.61 126.853L478.624 126.867L479.331 126.16ZM469.651 137.76L468.93 138.453L468.937 138.46L468.944 138.467L469.651 137.76ZM483.171 167.44L482.643 166.591L482.63 166.599L482.617 166.608L483.171 167.44ZM484.291 159.92L483.877 160.83L483.885 160.834L483.893 160.837L484.291 159.92ZM468.451 158.56L468.702 157.592L468.231 157.47L467.845 157.765L468.451 158.56ZM468.051 167.84L468.539 166.967L468.53 166.962L468.051 167.84ZM474.051 174.36C471.765 174.36 469.648 174.152 467.697 173.741L467.285 175.699C469.388 176.141 471.644 176.36 474.051 176.36V174.36ZM467.703 173.743C465.813 173.334 464.212 172.728 462.881 171.94L461.861 173.66C463.411 174.578 465.222 175.253 467.28 175.697L467.703 173.743ZM462.881 171.94C461.558 171.156 460.526 170.19 459.763 169.045L458.099 170.155C459.043 171.57 460.304 172.737 461.861 173.66L462.881 171.94ZM459.779 169.07C459.091 167.969 458.731 166.664 458.731 165.12H456.731C456.731 166.989 457.171 168.671 458.083 170.13L459.779 169.07ZM458.731 165.12C458.731 163.674 459.147 162.319 460.003 161.035L458.339 159.925C457.275 161.521 456.731 163.26 456.731 165.12H458.731ZM459.993 161.049C460.857 159.802 462.131 158.637 463.857 157.571L462.806 155.869C460.905 157.043 459.405 158.385 458.349 159.911L459.993 161.049ZM464.331 156.72V156.4H462.331V156.72H464.331ZM463.865 155.555C462.981 154.996 462.229 154.248 461.61 153.295L459.933 154.385C460.7 155.565 461.655 156.524 462.797 157.245L463.865 155.555ZM461.629 153.326C461.105 152.453 460.811 151.31 460.811 149.84H458.811C458.811 151.57 459.157 153.094 459.914 154.354L461.629 153.326ZM460.811 149.84C460.811 148.49 461.18 147.304 461.912 146.251L460.27 145.109C459.296 146.509 458.811 148.097 458.811 149.84H460.811ZM461.907 146.258C462.758 145.057 463.695 144.1 464.712 143.374L463.55 141.746C462.327 142.62 461.238 143.743 460.275 145.102L461.907 146.258ZM465.131 142.56V142.24H463.131V142.56H465.131ZM464.736 141.444C463.523 140.522 462.402 139.238 461.386 137.562L459.676 138.598C460.793 140.442 462.073 141.932 463.526 143.036L464.736 141.444ZM461.404 137.592C460.484 135.946 460.011 134.038 460.011 131.84H458.011C458.011 134.335 458.551 136.587 459.658 138.568L461.404 137.592ZM460.011 131.84C460.011 129.729 460.413 127.882 461.191 126.276L459.391 125.404C458.463 127.318 458.011 129.471 458.011 131.84H460.011ZM461.191 126.276C461.988 124.632 463.025 123.28 464.297 122.203L463.005 120.677C461.504 121.947 460.301 123.528 459.391 125.404L461.191 126.276ZM464.3 122.201C465.634 121.065 467.168 120.222 468.911 119.674L468.311 117.766C466.321 118.391 464.548 119.362 463.003 120.679L464.3 122.201ZM468.936 119.666C470.692 119.064 472.556 118.76 474.531 118.76V116.76C472.347 116.76 470.264 117.096 468.287 117.774L468.936 119.666ZM474.531 118.76C475.531 118.76 476.471 118.86 477.354 119.056L477.788 117.104C476.751 116.873 475.665 116.76 474.531 116.76V118.76ZM477.415 119.068C478.385 119.221 479.237 119.423 479.975 119.669L480.607 117.771C479.745 117.484 478.784 117.259 477.727 117.092L477.415 119.068ZM480.291 119.72H494.371V117.72H480.291V119.72ZM493.371 118.72V125.52H495.371V118.72H493.371ZM494.371 124.52H487.171V126.52H494.371V124.52ZM486.412 126.171C486.956 126.805 487.435 127.652 487.831 128.742L489.711 128.058C489.254 126.801 488.667 125.728 487.931 124.869L486.412 126.171ZM487.837 128.756C488.214 129.746 488.411 130.876 488.411 132.16H490.411C490.411 130.67 490.182 129.294 489.706 128.044L487.837 128.756ZM488.411 132.16C488.411 134.224 488.034 135.99 487.311 137.484L489.111 138.356C489.988 136.543 490.411 134.469 490.411 132.16H488.411ZM487.3 137.508C486.612 139.031 485.662 140.295 484.448 141.314L485.734 142.846C487.187 141.625 488.317 140.116 489.123 138.332L487.3 137.508ZM484.448 141.314C483.222 142.344 481.766 143.138 480.063 143.689L480.679 145.591C482.603 144.969 484.293 144.056 485.734 142.846L484.448 141.314ZM480.063 143.689C478.358 144.24 476.516 144.52 474.531 144.52V146.52C476.706 146.52 478.758 146.213 480.679 145.591L480.063 143.689ZM474.531 144.52C473.741 144.52 472.919 144.446 472.065 144.295L471.717 146.265C472.677 146.434 473.615 146.52 474.531 146.52V144.52ZM472.065 144.295C471.234 144.149 470.396 143.903 469.552 143.555L468.79 145.405C469.759 145.804 470.735 146.091 471.717 146.265L472.065 144.295ZM468.499 143.74C467.868 144.313 467.336 144.901 466.912 145.507L468.55 146.653C468.873 146.192 469.301 145.714 469.844 145.22L468.499 143.74ZM466.874 145.566C466.427 146.31 466.251 147.23 466.251 148.24H468.251C468.251 147.437 468.395 146.917 468.589 146.594L466.874 145.566ZM466.251 148.24C466.251 149.681 466.86 150.868 468.035 151.697L469.188 150.063C468.55 149.612 468.251 149.039 468.251 148.24H466.251ZM468.057 151.712C469.282 152.529 471.227 152.84 473.651 152.84V150.84C471.276 150.84 469.861 150.511 469.166 150.048L468.057 151.712ZM473.651 152.84H480.611V150.84H473.651V152.84ZM480.611 152.84C485.28 152.84 488.626 153.606 490.79 155.001L491.873 153.319C489.237 151.621 485.436 150.84 480.611 150.84V152.84ZM490.811 155.014C492.906 156.289 494.011 158.379 494.011 161.52H496.011C496.011 157.835 494.663 155.017 491.851 153.306L490.811 155.014ZM494.011 161.52C494.011 163.254 493.556 164.892 492.631 166.449L494.351 167.471C495.453 165.615 496.011 163.626 496.011 161.52H494.011ZM492.62 166.47C491.744 168.026 490.471 169.382 488.771 170.532L489.892 172.188C491.818 170.885 493.318 169.308 494.363 167.45L492.62 166.47ZM488.771 170.532C487.069 171.683 484.964 172.602 482.435 173.273L482.948 175.207C485.645 174.491 487.967 173.491 489.892 172.188L488.771 170.532ZM482.411 173.28C479.958 173.995 477.175 174.36 474.051 174.36V176.36C477.328 176.36 480.304 175.978 482.971 175.2L482.411 173.28ZM474.531 140.76C476.666 140.76 478.52 139.986 480.038 138.467L478.624 137.053C477.476 138.201 476.13 138.76 474.531 138.76V140.76ZM480.052 138.453C481.617 136.825 482.331 134.571 482.331 131.84H480.331C480.331 134.229 479.712 135.921 478.61 137.067L480.052 138.453ZM482.331 131.84C482.331 129.205 481.611 127.025 480.038 125.453L478.624 126.867C479.718 127.961 480.331 129.569 480.331 131.84H482.331ZM480.066 125.482C478.593 123.886 476.725 123.08 474.531 123.08V125.08C476.178 125.08 477.509 125.661 478.596 126.838L480.066 125.482ZM474.531 123.08C472.351 123.08 470.469 123.848 468.944 125.373L470.358 126.787C471.5 125.645 472.871 125.08 474.531 125.08V123.08ZM468.944 125.373C467.368 126.949 466.651 129.158 466.651 131.84H468.651C468.651 129.508 469.268 127.877 470.358 126.787L468.944 125.373ZM466.651 131.84C466.651 134.571 467.365 136.825 468.93 138.453L470.372 137.067C469.271 135.921 468.651 134.229 468.651 131.84H466.651ZM468.944 138.467C470.469 139.992 472.351 140.76 474.531 140.76V138.76C472.871 138.76 471.5 138.195 470.358 137.053L468.944 138.467ZM475.491 170.36C478.815 170.36 481.589 169.696 483.726 168.272L482.617 166.608C480.913 167.744 478.568 168.36 475.491 168.36V170.36ZM483.699 168.289C485.848 166.954 487.131 165.212 487.131 163.04H485.131C485.131 164.282 484.441 165.473 482.643 166.591L483.699 168.289ZM487.131 163.04C487.131 162.137 486.952 161.303 486.533 160.592C486.107 159.871 485.475 159.344 484.69 159.003L483.893 160.837C484.334 161.029 484.622 161.289 484.81 161.608C485.004 161.937 485.131 162.396 485.131 163.04H487.131ZM484.705 159.01C483.339 158.389 481.464 158.12 479.171 158.12V160.12C481.359 160.12 482.897 160.385 483.877 160.83L484.705 159.01ZM479.171 158.12H473.811V160.12H479.171V158.12ZM473.811 158.12C471.729 158.12 470.033 157.937 468.702 157.592L468.2 159.528C469.749 159.93 471.627 160.12 473.811 160.12V158.12ZM467.845 157.765C465.658 159.434 464.411 161.432 464.411 163.76H466.411C466.411 162.248 467.191 160.78 469.058 159.355L467.845 157.765ZM464.411 163.76C464.411 165.944 465.545 167.612 467.572 168.718L468.53 166.962C467.037 166.148 466.411 165.096 466.411 163.76H464.411ZM467.563 168.713C469.583 169.842 472.255 170.36 475.491 170.36V168.36C472.435 168.36 470.146 167.865 468.539 166.967L467.563 168.713ZM501.647 155.84L500.94 156.547L500.949 156.556L501.647 155.84ZM499.728 141.92L498.851 141.439L498.845 141.449L499.728 141.92ZM503.888 137.68L503.366 136.827L503.355 136.833L503.888 137.68ZM511.087 134.72L510.824 133.755L510.82 133.756L511.087 134.72ZM521.568 132.88L521.672 133.875L522.616 133.775L522.566 132.827L521.568 132.88ZM521.088 130L520.111 130.217L520.119 130.25L520.128 130.282L521.088 130ZM519.888 127.52L519.074 128.101L519.098 128.135L519.124 128.166L519.888 127.52ZM517.727 125.84L517.302 126.745L517.324 126.755L517.347 126.765L517.727 125.84ZM508.688 126.32L508.316 125.391L508.307 125.395L508.688 126.32ZM503.328 129.04L502.45 129.519L502.951 130.438L503.846 129.895L503.328 129.04ZM499.967 122.88L499.432 122.035L498.641 122.537L499.09 123.359L499.967 122.88ZM507.328 119.28L506.978 118.343L507.328 119.28ZM527.088 122.16L526.314 122.793L526.32 122.801L526.326 122.808L527.088 122.16ZM530.768 158V159H531.768V158H530.768ZM523.167 158L522.178 158.147L522.305 159H523.167V158ZM522.528 153.68L523.517 153.533L523.39 152.68H522.528V153.68ZM522.208 153.68V152.68H521.84L521.561 152.917L522.208 153.68ZM516.528 157.44L516.08 156.546L516.071 156.55L516.528 157.44ZM517.328 150.64L516.839 149.767L516.831 149.772L516.824 149.776L517.328 150.64ZM521.568 147.44L522.248 148.173L522.568 147.876V147.44H521.568ZM521.568 138.64H522.568V137.513L521.448 137.647L521.568 138.64ZM514.847 139.92L514.565 138.961L514.847 139.92ZM510.448 141.76L510.944 142.628L510.959 142.62L510.974 142.61L510.448 141.76ZM508.927 150.56L508.328 151.36L508.927 150.56ZM510.047 157.96C506.796 157.96 504.262 156.992 502.346 155.124L500.949 156.556C503.3 158.848 506.366 159.96 510.047 159.96V157.96ZM502.355 155.133C500.437 153.215 499.448 150.684 499.448 147.44H497.448C497.448 151.129 498.591 154.198 500.94 156.547L502.355 155.133ZM499.448 147.44C499.448 145.5 499.844 143.826 500.61 142.391L498.845 141.449C497.904 143.214 497.448 145.22 497.448 147.44H499.448ZM500.604 142.401C501.416 140.92 502.673 139.625 504.42 138.527L503.355 136.833C501.369 138.082 499.852 139.613 498.851 141.439L500.604 142.401ZM504.409 138.533C506.229 137.421 508.537 136.466 511.355 135.684L510.82 133.756C507.878 134.574 505.386 135.592 503.366 136.827L504.409 138.533ZM511.351 135.685C514.218 134.903 517.656 134.297 521.672 133.875L521.463 131.885C517.373 132.316 513.824 132.937 510.824 133.755L511.351 135.685ZM522.566 132.827C522.509 131.742 522.337 130.705 522.047 129.718L520.128 130.282C520.371 131.109 520.519 131.991 520.569 132.933L522.566 132.827ZM522.064 129.783C521.818 128.678 521.351 127.701 520.651 126.874L519.124 128.166C519.598 128.726 519.93 129.402 520.111 130.217L522.064 129.783ZM520.701 126.939C520.051 126.029 519.176 125.355 518.108 124.915L517.347 126.765C518.092 127.072 518.657 127.518 519.074 128.101L520.701 126.939ZM518.153 124.935C517.077 124.429 515.802 124.2 514.367 124.2V126.2C515.6 126.2 516.565 126.398 517.302 126.745L518.153 124.935ZM514.367 124.2C512.314 124.2 510.295 124.6 508.316 125.392L509.059 127.248C510.813 126.547 512.581 126.2 514.367 126.2V124.2ZM508.307 125.395C506.444 126.163 504.611 127.093 502.809 128.185L503.846 129.895C505.564 128.854 507.305 127.971 509.068 127.245L508.307 125.395ZM504.205 128.561L500.845 122.401L499.09 123.359L502.45 129.519L504.205 128.561ZM500.503 123.725C502.624 122.379 505.014 121.209 507.677 120.217L506.978 118.343C504.201 119.378 501.684 120.607 499.432 122.035L500.503 123.725ZM507.677 120.217C510.276 119.249 513.09 118.76 516.128 118.76V116.76C512.872 116.76 509.819 117.285 506.978 118.343L507.677 120.217ZM516.128 118.76C520.83 118.76 524.157 120.157 526.314 122.793L527.861 121.527C525.218 118.296 521.239 116.76 516.128 116.76V118.76ZM526.326 122.808C528.569 125.441 529.768 129.359 529.768 134.72H531.768C531.768 129.094 530.513 124.639 527.849 121.512L526.326 122.808ZM529.768 134.72V158H531.768V134.72H529.768ZM530.768 157H523.167V159H530.768V157ZM524.157 157.853L523.517 153.533L521.538 153.827L522.178 158.147L524.157 157.853ZM522.528 152.68H522.208V154.68H522.528V152.68ZM521.561 152.917C519.86 154.36 518.034 155.569 516.08 156.546L516.975 158.334C519.074 157.285 521.035 155.987 522.854 154.443L521.561 152.917ZM516.071 156.55C514.247 157.487 512.245 157.96 510.047 157.96V159.96C512.544 159.96 514.861 159.42 516.984 158.33L516.071 156.55ZM513.008 152.76C514.77 152.76 516.386 152.347 517.831 151.504L516.824 149.776C515.709 150.427 514.445 150.76 513.008 150.76V152.76ZM517.816 151.513C519.237 150.717 520.714 149.597 522.248 148.173L520.887 146.707C519.434 148.057 518.084 149.07 516.839 149.767L517.816 151.513ZM522.568 147.44V138.64H520.568V147.44H522.568ZM521.448 137.647C518.747 137.971 516.449 138.407 514.565 138.961L515.13 140.879C516.873 140.367 519.054 139.949 521.687 139.633L521.448 137.647ZM514.565 138.961C512.7 139.509 511.142 140.154 509.921 140.91L510.974 142.61C511.993 141.98 513.368 141.397 515.13 140.879L514.565 138.961ZM509.951 140.892C508.723 141.594 507.768 142.456 507.176 143.51L508.919 144.49C509.286 143.837 509.932 143.206 510.944 142.628L509.951 140.892ZM507.176 143.51C506.613 144.51 506.328 145.585 506.328 146.72H508.328C508.328 145.935 508.522 145.197 508.919 144.49L507.176 143.51ZM506.328 146.72C506.328 148.685 506.933 150.314 508.328 151.36L509.527 149.76C508.789 149.206 508.328 148.275 508.328 146.72H506.328ZM508.328 151.36C509.605 152.318 511.191 152.76 513.008 152.76V150.76C511.518 150.76 510.383 150.402 509.527 149.76L508.328 151.36ZM541.778 158H540.778V159H541.778V158ZM541.778 118.72V117.72H540.778V118.72H541.778ZM550.977 118.72H551.977V117.72H550.977V118.72ZM550.977 158V159H551.977V158H550.977ZM542.338 110.4L543.006 109.657L542.338 110.4ZM542.338 102.88L543.006 103.623L543.016 103.614L543.026 103.605L542.338 102.88ZM550.497 102.88L549.809 103.605L549.819 103.614L549.829 103.623L550.497 102.88ZM550.497 110.4L551.166 111.143L550.497 110.4ZM542.778 158V118.72H540.778V158H542.778ZM541.778 119.72H550.977V117.72H541.778V119.72ZM549.977 118.72V158H551.977V118.72H549.977ZM550.977 157H541.778V159H550.977V157ZM546.417 110.84C544.971 110.84 543.862 110.426 543.006 109.657L541.669 111.143C542.947 112.294 544.557 112.84 546.417 112.84V110.84ZM543.006 109.657C542.168 108.902 541.737 107.928 541.737 106.64H539.737C539.737 108.445 540.373 109.978 541.669 111.143L543.006 109.657ZM541.737 106.64C541.737 105.352 542.168 104.378 543.006 103.623L541.669 102.137C540.373 103.302 539.737 104.835 539.737 106.64H541.737ZM543.026 103.605C543.884 102.791 544.986 102.36 546.417 102.36V100.36C544.542 100.36 542.925 100.943 541.649 102.155L543.026 103.605ZM546.417 102.36C547.849 102.36 548.951 102.791 549.809 103.605L551.186 102.155C549.91 100.943 548.293 100.36 546.417 100.36V102.36ZM549.829 103.623C550.667 104.378 551.097 105.352 551.097 106.64H553.097C553.097 104.835 552.462 103.302 551.166 102.137L549.829 103.623ZM551.097 106.64C551.097 107.928 550.667 108.902 549.829 109.657L551.166 111.143C552.462 109.978 553.097 108.445 553.097 106.64H551.097ZM549.829 109.657C548.973 110.426 547.864 110.84 546.417 110.84V112.84C548.278 112.84 549.888 112.294 551.166 111.143L549.829 109.657ZM562.715 158H561.715V159H562.715V158ZM562.715 118.72V117.72H561.715V118.72H562.715ZM570.315 118.72L571.308 118.6L571.201 117.72H570.315V118.72ZM570.955 124L569.962 124.12L570.069 125H570.955V124ZM571.275 124V125H571.68L571.971 124.718L571.275 124ZM576.955 119.6L576.447 118.739L576.437 118.744L576.955 119.6ZM593.355 121.84L592.538 122.417L592.543 122.424L593.355 121.84ZM596.235 158V159H597.235V158H596.235ZM587.035 158H586.035V159H587.035V158ZM585.595 127.68L586.407 127.096L585.595 127.68ZM576.315 126.96L576.845 127.808L576.854 127.802L576.315 126.96ZM571.915 130.56L571.22 129.841L570.915 130.136V130.56H571.915ZM571.915 158V159H572.915V158H571.915ZM563.715 158V118.72H561.715V158H563.715ZM562.715 119.72H570.315V117.72H562.715V119.72ZM569.322 118.84L569.962 124.12L571.948 123.88L571.308 118.6L569.322 118.84ZM570.955 125H571.275V123H570.955V125ZM571.971 124.718C573.679 123.062 575.513 121.642 577.473 120.455L576.437 118.744C574.344 120.012 572.391 121.525 570.579 123.282L571.971 124.718ZM577.463 120.461C579.37 119.337 581.591 118.76 584.155 118.76V116.76C581.279 116.76 578.7 117.41 576.447 118.739L577.463 120.461ZM584.155 118.76C588.14 118.76 590.855 120.032 592.538 122.417L594.172 121.263C592.015 118.208 588.597 116.76 584.155 116.76V118.76ZM592.543 122.424C594.292 124.853 595.235 128.453 595.235 133.36H597.235C597.235 128.241 596.258 124.161 594.167 121.256L592.543 122.424ZM595.235 133.36V158H597.235V133.36H595.235ZM596.235 157H587.035V159H596.235V157ZM588.035 158V134.56H586.035V158H588.035ZM588.035 134.56C588.035 131.269 587.561 128.699 586.407 127.096L584.783 128.264C585.549 129.327 586.035 131.344 586.035 134.56H588.035ZM586.407 127.096C585.2 125.419 583.267 124.68 580.875 124.68V126.68C582.856 126.68 584.07 127.274 584.783 128.264L586.407 127.096ZM580.875 124.68C578.993 124.68 577.283 125.153 575.776 126.118L576.854 127.802C578.014 127.06 579.344 126.68 580.875 126.68V124.68ZM575.785 126.112C574.423 126.963 572.9 128.215 571.22 129.841L572.61 131.279C574.237 129.705 575.647 128.557 576.845 127.808L575.785 126.112ZM570.915 130.56V158H572.915V130.56H570.915ZM571.915 157H562.715V159H571.915V157Z" fill="#FBFF2F"/>
</svg>
